<?xml version="1.0" standalone="no"?>
<!DOCTYPE svg PUBLIC "-//W3C//DTD SVG 20010904//EN"
 "http://www.w3.org/TR/2001/REC-SVG-20010904/DTD/svg10.dtd">
<svg version="1.0" xmlns="http://www.w3.org/2000/svg"
 width="1920.000000pt" height="700.000000pt" viewBox="0 0 1920.000000 700.000000"
 preserveAspectRatio="xMidYMid meet">

<g transform="translate(0.000000,700.000000) scale(0.100000,-0.100000)"
fill="#000000" stroke="none">
<path d="M0 3579 c0 -2151 3 -3228 10 -3224 5 3 10 1 10 -4 0 -6 9 -11 20 -11
11 0 20 6 20 13 0 9 14 13 40 14 22 0 40 -4 40 -9 0 -7 5 -7 13 -1 6 5 18 8
25 7 6 -1 18 -2 25 -3 7 0 14 -15 15 -32 3 -41 9 -49 32 -49 23 0 39 26 42 67
2 23 7 30 23 29 11 -1 19 5 18 12 -2 6 4 13 12 13 26 2 55 6 63 9 4 1 10 2 13
2 3 -1 6 5 6 13 0 8 -3 13 -6 12 -3 -1 -6 3 -6 8 0 6 4 9 8 7 5 -1 6 2 2 8 -5
8 -11 7 -21 -1 -13 -11 -18 -6 -15 14 1 5 -3 6 -8 3 -5 -4 -8 -15 -6 -26 2
-11 -1 -19 -8 -17 -7 1 -11 -3 -10 -9 1 -6 -4 -11 -11 -11 -7 0 -13 6 -13 13
0 7 3 12 6 11 3 -1 6 3 6 8 0 5 -3 9 -6 8 -3 -1 -6 4 -6 12 0 8 4 12 8 9 4 -2
10 0 13 5 6 10 24 10 41 0 6 -3 24 -5 40 -3 17 1 61 4 98 5 38 2 71 7 74 11 2
5 8 6 12 4 4 -3 8 1 8 9 0 8 -3 13 -6 12 -3 -1 -6 3 -6 8 0 6 3 9 6 8 3 -1 6
4 6 12 0 8 -3 13 -6 12 -3 -1 -6 3 -6 8 0 6 3 9 6 8 3 -1 6 5 6 13 0 12 -3 12
-17 -1 -9 -8 -20 -12 -25 -8 -4 5 -5 2 0 -6 6 -10 4 -12 -5 -6 -9 5 -11 4 -6
-4 4 -6 4 -10 -1 -9 -4 2 -8 -2 -8 -7 0 -6 3 -9 6 -8 3 1 6 -4 6 -12 0 -8 -5
-13 -11 -12 -6 1 -10 -3 -9 -9 1 -6 -4 -11 -11 -11 -7 0 -13 6 -13 13 0 7 3
12 6 11 3 -1 6 3 6 8 0 6 -3 9 -6 8 -3 -1 -6 4 -6 12 0 8 3 13 6 12 3 -1 6 3
6 8 0 6 -3 9 -6 8 -3 -1 -6 4 -6 11 0 7 6 13 13 13 7 0 12 -3 11 -6 -1 -3 3
-6 8 -6 6 0 9 3 8 7 -1 3 5 5 15 3 9 -1 23 2 29 7 13 10 42 7 76 -7 11 -5 17
-3 17 7 0 8 7 15 15 15 8 0 12 -4 9 -9 -3 -4 0 -8 5 -8 6 0 11 5 11 12 0 6 9
3 20 -7 11 -10 20 -15 20 -10 0 4 6 2 14 -4 10 -8 16 -9 21 -1 3 6 11 8 16 5
5 -4 9 1 9 9 0 9 -7 16 -16 16 -8 0 -13 -4 -9 -9 3 -5 1 -12 -4 -15 -15 -10
-22 10 -8 22 16 14 118 19 137 7 20 -13 41 -15 34 -4 -3 5 -11 9 -18 9 -7 0
-13 6 -13 14 0 14 14 16 34 3 6 -4 14 -3 18 3 4 6 11 7 17 4 7 -4 8 -2 4 5 -6
9 -12 9 -24 -1 -15 -12 -16 -11 -3 4 7 10 17 15 22 12 5 -3 9 -1 9 4 0 6 7 13
16 16 12 5 14 3 8 -7 -5 -7 -2 -6 6 3 8 8 34 28 58 44 84 57 159 169 194 291
12 44 30 85 38 92 8 7 10 13 4 13 -7 0 -13 34 -16 93 -6 109 -40 234 -81 294
-15 24 -29 51 -30 62 0 11 -4 19 -7 18 -3 -1 -30 19 -60 44 -30 26 -71 54 -90
64 -19 10 -41 25 -48 34 -10 12 -12 12 -6 1 6 -12 5 -13 -7 -4 -8 6 -31 14
-51 18 -21 4 -38 12 -38 18 0 6 -11 8 -27 4 -16 -3 -22 -3 -15 0 6 3 12 14 12
25 0 14 6 18 23 16 12 -1 21 3 20 10 -2 12 14 12 33 0 17 -10 24 3 11 24 -9
14 -7 22 8 40 11 12 15 20 9 16 -11 -6 -51 29 -47 42 1 3 -1 8 -3 11 -11 11 3
-49 14 -63 9 -11 10 -17 2 -22 -6 -4 -9 -1 -8 7 2 7 -3 12 -10 10 -8 -1 -11 2
-8 7 3 5 -1 14 -9 21 -11 9 -12 17 -4 31 8 15 6 19 -8 20 -64 2 -135 25 -134
43 1 3 0 8 0 11 -1 3 -2 11 -3 18 -1 6 -8 11 -15 9 -7 -1 -10 2 -7 7 6 9 31 9
41 0 3 -3 33 -4 68 -3 114 6 294 -49 414 -127 76 -50 187 -165 236 -245 94
-155 132 -310 124 -512 -5 -165 -27 -257 -93 -390 -81 -162 -245 -313 -411
-376 -106 -40 -203 -56 -385 -63 -93 -3 -171 -10 -174 -15 -3 -4 -2 -17 1 -28
6 -19 15 -20 159 -20 282 0 451 49 632 185 152 114 257 280 316 497 29 110 32
365 5 472 -57 226 -193 432 -358 541 -136 91 -332 152 -500 156 -51 1 -77 6
-76 13 1 6 -3 10 -9 9 -6 -1 -11 4 -11 12 0 8 4 12 8 9 4 -2 10 0 14 6 3 6 -1
13 -9 16 -9 3 -16 17 -16 30 0 13 -4 24 -10 24 -5 0 -12 11 -16 24 -5 23 -40
46 -70 46 -8 0 -12 5 -9 10 4 6 1 9 -7 8 -7 -2 -12 2 -11 8 1 5 -9 10 -22 10
-13 0 -22 -3 -19 -7 2 -4 0 -10 -6 -14 -6 -4 -8 -11 -4 -16 4 -6 14 -3 25 7
10 9 19 15 20 13 0 -2 2 -12 4 -22 2 -11 1 -16 -2 -13 -4 3 -12 1 -20 -5 -7
-6 -13 -8 -13 -4 0 4 -6 2 -14 -4 -10 -8 -16 -9 -21 -1 -4 6 -3 9 2 8 4 -2 8
2 8 7 0 6 -4 9 -8 7 -5 -1 -6 2 -2 8 5 8 -66 17 -98 11 -5 -1 -6 3 -3 8 4 5 2
12 -4 16 -6 4 -8 11 -4 16 3 5 2 8 -3 7 -4 -2 -8 2 -8 7 0 5 3 9 6 8 3 -1 6 4
6 12 0 8 -3 13 -6 12 -3 -1 -6 3 -6 8 0 6 3 9 6 8 3 -1 6 4 6 12 0 8 -3 14 -6
13 -3 0 -8 1 -11 2 -26 10 -36 5 -36 -16 0 -12 4 -20 10 -17 5 3 6 1 2 -6 -4
-6 -4 -10 1 -9 4 2 8 -1 8 -7 0 -5 -4 -9 -8 -7 -5 1 -5 -3 -1 -9 4 -7 3 -9 -4
-5 -12 7 -10 -20 3 -31 4 -4 5 -3 1 4 -7 14 10 28 18 14 3 -5 -1 -14 -9 -21
-8 -7 -15 -9 -15 -5 0 5 -9 0 -19 -9 -13 -12 -21 -14 -26 -6 -3 6 -3 9 2 8 4
-2 8 2 8 7 0 6 -3 9 -6 8 -3 -1 -6 4 -6 12 0 8 3 12 7 10 4 -3 15 4 25 15 16
18 14 25 -7 21 -5 0 -7 5 -5 12 1 6 -3 11 -9 10 -6 -1 -11 4 -11 12 0 8 5 13
11 12 6 -1 10 3 9 9 -1 6 13 10 36 9 25 -1 38 3 38 11 0 7 -4 11 -9 8 -4 -3
-8 1 -8 9 0 17 33 12 65 -10 23 -15 69 -18 60 -3 -4 6 -3 9 2 8 4 -2 8 2 8 7
0 6 -3 9 -6 8 -3 -1 -6 4 -6 12 0 8 3 13 6 12 3 -1 6 2 6 8 0 5 -3 9 -6 8 -3
-1 -6 4 -6 12 0 8 3 13 6 12 3 -1 6 3 6 8 0 6 -3 9 -6 8 -3 -1 -6 4 -6 11 0 7
6 13 13 13 7 0 12 -3 11 -6 -1 -3 3 -6 8 -6 6 0 9 3 8 7 -2 4 4 5 12 2 18 -7
19 -16 2 -33 -8 -10 -8 -12 0 -7 14 7 28 -10 14 -18 -5 -3 -14 1 -21 9 -13 16
-35 10 -24 -6 3 -5 9 -7 13 -5 4 3 8 -1 8 -9 0 -8 -3 -13 -6 -12 -3 1 -6 -2
-6 -8 0 -5 3 -9 6 -8 3 1 6 -4 6 -12 0 -8 -5 -13 -11 -12 -6 1 -10 -4 -8 -11
1 -8 -2 -11 -7 -8 -18 11 -21 -12 -3 -25 9 -7 14 -9 10 -5 -4 5 -3 15 4 23 9
11 14 11 30 -4 15 -14 19 -14 16 -3 -2 8 2 14 8 13 6 -1 11 4 11 12 0 8 -3 13
-6 12 -3 -1 -6 3 -6 8 0 6 3 9 6 8 3 -1 6 4 6 12 0 8 -3 13 -6 12 -3 -1 -6 2
-6 8 0 5 3 9 6 8 3 -1 6 4 6 12 0 8 -3 13 -6 12 -3 -1 -6 3 -6 8 0 6 8 9 17 9
10 -1 18 3 18 8 0 6 13 7 33 2 17 -4 42 -7 55 -6 13 1 21 -2 17 -7 -3 -5 -1
-12 5 -16 6 -4 8 -10 5 -15 -3 -5 -1 -11 5 -15 6 -4 7 -12 3 -18 -4 -7 0 -6
10 2 15 12 21 9 19 -10 -1 -3 5 -6 12 -6 7 0 13 6 13 13 0 7 -4 12 -8 11 -4
-1 -7 3 -7 8 0 6 3 9 7 8 4 -1 8 4 8 12 0 8 -5 13 -11 12 -6 -1 -10 3 -9 9 1
6 -4 11 -12 11 -8 0 -12 -3 -10 -7 2 -4 -3 -7 -11 -7 -13 0 -13 2 1 16 13 13
19 14 36 3 12 -8 18 -9 14 -3 -3 6 -1 11 4 11 10 0 15 -14 12 -32 0 -5 2 -7 7
-7 4 1 18 1 32 0 19 -1 22 -3 10 -10 -8 -6 -19 -7 -25 -3 -5 3 -4 -2 4 -11 17
-21 41 -22 41 -2 0 8 7 15 16 15 8 0 13 -4 10 -9 -5 -8 32 -49 40 -43 6 3 3
-12 -3 -18 -4 -3 -3 1 2 9 6 10 4 12 -4 6 -9 -5 -7 -13 10 -31 25 -27 30 -29
26 -12 -1 7 11 13 31 14 17 1 39 2 47 3 23 2 18 42 -5 48 -27 7 -25 25 2 23
36 -3 48 -1 48 10 0 6 -9 10 -19 10 -11 0 -26 6 -33 13 -7 7 -22 13 -33 13
-11 0 -19 6 -17 13 1 7 -2 10 -7 7 -5 -4 -12 -2 -16 3 -3 5 -14 8 -25 6 -11
-2 -22 1 -26 6 -3 5 -1 8 4 7 6 -2 10 2 10 7 0 6 -4 9 -9 8 -5 -2 -8 3 -6 10
1 6 -4 11 -10 10 -7 -2 -12 0 -12 5 3 19 -2 23 -17 11 -13 -10 -17 -10 -25 2
-8 12 -10 12 -19 -1 -7 -10 -12 -12 -17 -4 -5 6 -21 10 -36 10 -16 -1 -31 2
-33 6 -3 5 -9 6 -14 3 -5 -3 -11 -1 -15 5 -4 6 -11 7 -17 4 -7 -4 -8 -2 -4 5
6 8 12 9 20 2 9 -7 16 -7 24 1 10 10 17 10 33 0 12 -8 18 -9 14 -3 -4 7 6 11
29 11 19 0 38 -5 42 -11 3 -6 15 -9 25 -6 12 3 19 0 19 -10 0 -8 5 -11 10 -8
6 4 8 11 4 16 -3 5 0 8 8 7 7 -2 12 3 11 9 -2 7 0 12 5 11 4 0 14 2 22 5 8 3
56 19 107 35 327 104 543 377 597 757 l11 80 41 1 c28 1 41 -3 41 -12 0 -7 -3
-11 -7 -9 -3 2 -12 -1 -20 -6 -13 -8 -12 -9 2 -7 9 2 16 -1 15 -7 -1 -5 -6 -9
-10 -7 -5 1 -6 -2 -2 -8 5 -8 11 -7 21 1 8 6 14 8 14 4 0 -4 6 -3 13 4 10 7
17 7 24 0 8 -8 13 -7 18 0 4 7 1 10 -7 9 -7 -2 -12 2 -11 9 3 12 -14 12 -34 0
-7 -5 -9 -1 -6 12 5 19 23 19 48 0 7 -5 11 -1 12 11 1 14 -7 20 -37 25 -22 4
-44 4 -49 1 -5 -4 -12 -2 -16 4 -3 5 -17 7 -31 4 -14 -4 -24 -2 -24 5 0 6 5
11 10 11 6 0 10 16 10 35 0 25 4 35 16 35 9 0 14 5 12 11 -2 6 -8 10 -13 10
-6 0 -18 8 -28 16 -14 13 -15 18 -5 26 10 7 10 10 1 14 -7 2 -13 11 -13 19 0
9 5 12 10 9 6 -4 23 0 40 8 l29 15 3 -36 c2 -25 8 -36 21 -38 15 -2 16 0 5 13
-14 17 -20 46 -8 38 10 -6 24 14 26 38 2 29 4 30 18 18 9 -8 16 -8 20 -2 4 5
19 8 34 5 20 -3 23 -2 12 6 -8 5 -28 10 -43 10 -32 0 -65 25 -44 33 9 3 8 9
-4 22 -13 13 -18 14 -24 4 -6 -8 -4 -10 6 -4 8 5 10 4 6 0 -4 -5 -14 -10 -23
-11 -11 -2 -12 1 -5 10 6 7 9 15 7 17 -2 2 8 15 22 29 13 14 22 19 18 13 -5
-9 -2 -11 8 -7 9 3 16 14 16 24 0 12 9 20 23 22 14 2 21 9 21 21 -1 9 2 17 7
17 10 0 11 -12 3 -34 -3 -9 -12 -16 -20 -16 -8 0 -14 -5 -14 -11 0 -6 12 -9
28 -7 19 2 27 9 27 22 0 11 8 20 17 22 14 2 17 -4 15 -29 -1 -22 2 -31 11 -29
43 8 58 8 70 -1 10 -8 12 -7 10 3 -4 17 43 21 54 5 5 -6 8 -3 8 8 0 17 -8 21
-47 19 -13 -1 -23 3 -23 9 0 6 4 8 9 4 5 -3 12 -1 15 4 4 5 2 12 -3 15 -5 4
-13 1 -16 -4 -4 -6 -18 -15 -32 -21 -13 -5 -22 -13 -19 -17 3 -5 -1 -9 -8 -9
-7 0 -13 6 -13 13 0 7 5 12 11 11 13 -3 15 46 1 55 -5 4 0 8 12 8 12 0 25 -5
28 -10 11 -18 78 -1 104 26 17 19 20 28 12 34 -7 4 -13 11 -14 16 -1 5 -5 8
-9 7 -3 -1 -12 5 -20 15 -12 15 -11 16 5 3 9 -7 17 -10 17 -6 0 4 6 2 13 -4 8
-6 18 -7 22 -3 5 4 5 1 1 -6 -5 -8 -3 -11 5 -10 7 2 13 -2 14 -9 0 -6 3 -14 6
-18 4 -3 6 2 5 12 0 10 4 18 9 18 6 0 9 -4 7 -9 -2 -5 4 -4 12 3 20 17 10 34
-15 28 -10 -3 -22 -1 -25 4 -3 5 -10 7 -15 4 -5 -4 -9 1 -9 10 0 10 5 13 13 9
6 -4 3 2 -7 14 -14 16 -22 19 -32 11 -9 -7 -14 -6 -20 3 -4 7 -4 10 1 6 4 -4
14 -3 21 3 8 7 14 7 19 -1 5 -8 11 -7 21 1 9 7 14 8 12 3 -3 -8 4 -14 17 -14
2 0 0 12 -5 26 -6 15 -6 23 -1 19 5 -3 12 -1 16 5 4 6 11 8 16 4 5 -3 7 -10 3
-15 -3 -5 -10 -6 -16 -3 -7 5 -8 2 -3 -5 5 -9 13 -7 29 8 12 12 25 18 29 15 3
-4 5 3 2 15 -5 25 18 50 48 53 12 0 27 2 32 3 6 2 14 3 19 4 5 0 3 8 -4 16 -9
10 -9 15 -1 15 6 0 11 4 11 9 0 6 -21 11 -47 13 -43 3 -46 4 -30 19 15 16 14
19 -14 42 -33 27 -32 41 1 50 20 5 22 1 24 -48 1 -16 9 -21 46 -23 25 -2 50
-8 56 -13 8 -7 15 -6 20 2 5 8 3 9 -6 4 -9 -6 -11 -4 -5 5 5 8 4 11 -3 6 -6
-3 -13 -2 -16 3 -9 13 19 8 38 -8 9 -7 13 -18 9 -25 -4 -6 1 -5 10 3 19 15 23
26 5 15 -7 -4 -8 -3 -4 4 10 17 19 15 34 -8 10 -17 1 -46 -64 -207 -146 -361
-216 -528 -225 -531 -5 -2 -7 -7 -4 -12 2 -4 -18 -63 -46 -131 -213 -524 -319
-791 -319 -808 0 -24 29 -36 46 -19 7 7 70 153 140 323 70 171 154 375 186
455 33 80 102 249 153 375 192 472 213 520 221 520 5 0 14 4 21 8 16 10 11 20
166 -358 455 -1112 529 -1292 543 -1313 8 -13 20 -22 26 -20 37 13 30 37 -160
504 -395 970 -462 1140 -464 1161 -1 12 -6 19 -10 17 -4 -3 -8 2 -8 10 0 21 4
31 11 29 3 -1 6 4 6 11 0 7 -10 13 -21 12 -12 -1 -21 4 -22 9 0 6 -4 18 -8 27
-4 9 -9 23 -10 32 -3 23 -37 56 -57 56 -10 0 -23 -9 -29 -21 -10 -17 -20 -20
-60 -18 -27 2 -52 0 -55 -2 -3 -3 -54 -4 -115 -2 -96 3 -110 2 -110 -12 0 -9
-4 -14 -9 -10 -5 3 -12 1 -16 -5 -4 -6 -11 -8 -16 -4 -5 3 -7 10 -3 15 3 5 9
7 14 4 5 -3 12 -1 15 5 4 6 3 9 -2 8 -4 -2 -8 2 -8 7 0 6 5 8 10 7 6 -2 6 0 2
5 -5 4 -13 8 -18 8 -5 0 -8 4 -6 10 1 5 11 9 22 8 l20 -3 -20 9 c-11 5 -23 7
-27 4 -5 -2 -8 1 -8 7 0 6 -8 10 -17 8 -14 -2 -18 4 -17 29 0 18 -3 30 -8 27
-4 -3 -8 2 -8 11 0 10 -5 13 -12 9 -7 -4 -10 -4 -6 1 4 4 2 15 -4 24 -7 9 -8
13 -4 9 5 -4 15 -3 22 3 9 7 19 7 35 -1 17 -10 20 -10 13 2 -15 23 -12 34 8
35 11 1 29 9 39 19 10 9 25 14 33 11 9 -4 18 -2 21 4 4 5 11 7 16 4 5 -4 9 -1
9 4 0 6 7 11 15 11 8 0 28 14 45 30 17 17 28 30 25 30 -3 0 6 12 20 26 14 14
22 30 19 36 -4 6 -2 8 4 4 6 -3 13 -2 17 4 4 6 10 8 15 5 5 -3 11 -1 14 4 4 5
27 8 52 7 44 -3 67 7 42 17 -10 4 -9 8 2 16 9 6 72 11 151 11 l137 0 32 -79
c33 -83 53 -102 79 -76 14 13 13 20 -3 67 -10 29 -28 73 -40 98 l-21 45 -108
3 c-67 2 -105 6 -102 13 4 5 11 7 16 4 5 -4 9 1 9 9 0 8 9 31 21 50 12 22 17
40 12 48 -4 7 -8 22 -8 33 0 13 -8 21 -22 23 -13 2 -23 8 -23 13 0 5 -3 8 -7
8 -24 -4 -41 3 -39 15 3 21 27 47 37 40 5 -3 9 -1 9 4 0 5 25 13 55 17 38 4
53 10 48 18 -5 8 -2 8 9 0 12 -11 18 -10 30 5 8 9 18 25 21 35 6 16 22 21 60
17 10 -1 29 6 42 14 13 9 32 16 41 16 36 0 -4 17 -45 19 -10 1 -12 10 -8 34 5
34 -11 67 -33 67 -7 0 -10 -8 -7 -19 5 -20 -18 -50 -38 -50 -5 0 -18 8 -28 16
-16 15 -16 18 -1 34 16 18 40 16 28 -2 -3 -5 -9 -7 -13 -5 -4 3 -8 -1 -8 -9 0
-8 3 -13 5 -10 3 3 11 0 18 -6 8 -7 14 -7 19 1 4 6 3 9 -2 8 -4 -2 -8 2 -8 7
0 6 3 9 6 8 3 -1 6 4 6 12 0 8 -4 12 -8 10 -3 -3 -12 2 -19 11 -11 12 -9 18
11 32 13 9 26 16 29 15 3 -1 7 10 8 25 1 14 7 31 12 36 17 17 11 26 -16 26
-17 0 -23 4 -18 13 4 6 -2 3 -14 -7 -12 -11 -22 -16 -22 -11 0 4 -6 2 -14 -4
-10 -9 -16 -8 -26 4 -16 19 -69 20 -76 0 -7 -17 -64 -21 -64 -4 0 5 5 7 12 3
7 -5 8 -3 4 5 -6 9 -13 8 -29 -6 -11 -10 -17 -12 -13 -5 4 6 3 12 -2 12 -5 0
-12 9 -15 20 -7 26 -33 36 -53 19 -15 -12 -15 -34 1 -73 8 -17 4 -18 -49 -13
-33 3 -65 12 -76 22 -12 11 -20 13 -25 5 -3 -5 -10 -8 -15 -5 -5 3 -11 1 -15
-5 -4 -6 -12 -7 -18 -3 -7 4 -17 8 -24 9 -6 1 -21 9 -33 17 -20 14 -20 15 -1
20 16 4 19 13 18 51 -1 30 3 48 11 51 23 8 2 25 -31 25 -18 0 -27 4 -22 8 6 4
11 15 13 25 6 34 109 268 118 269 5 0 11 2 14 5 3 4 -1 3 -7 -1 -19 -11 -16 7
11 66 13 29 49 118 81 198 32 80 61 149 65 153 6 7 90 -184 90 -206 0 -4 -12
-12 -26 -17 -16 -6 -23 -14 -18 -22 4 -7 3 -10 -1 -5 -5 4 -18 -1 -29 -10 -18
-15 -19 -16 -8 -1 11 14 11 16 -7 11 -12 -3 -18 -9 -15 -14 3 -5 -2 -6 -10 -3
-11 4 -16 0 -16 -15 0 -16 6 -21 26 -21 16 0 23 4 18 12 -4 6 -3 8 4 5 5 -4 8
-17 4 -29 -4 -16 -2 -19 9 -13 12 7 12 6 1 -7 -11 -13 -11 -18 0 -24 20 -13
39 -14 32 -2 -5 7 -2 8 7 2 20 -12 38 -14 45 -3 3 5 15 9 27 9 19 0 36 -35
146 -305 68 -168 121 -308 118 -312 -4 -3 1 -11 10 -18 8 -6 16 -26 17 -43 0
-18 6 -32 11 -32 6 0 70 -149 144 -330 74 -181 141 -332 149 -335 17 -6 42 12
42 30 0 6 -102 261 -226 566 -359 879 -341 833 -323 844 5 4 7 11 3 16 -3 5
-9 7 -13 5 -4 -3 -8 1 -8 9 0 8 5 13 10 12 6 -1 16 8 22 20 7 13 14 21 17 18
3 -3 13 4 23 15 10 11 29 20 42 20 14 0 23 6 23 15 0 8 -7 15 -16 15 -9 0 -12
5 -8 12 5 7 3 8 -7 2 -16 -10 -44 -15 -35 -6 3 3 -3 16 -15 28 -19 21 -20 22
-3 19 11 -1 18 -7 17 -12 -1 -5 4 -10 11 -10 7 0 13 6 13 13 0 7 -4 11 -8 8
-4 -2 -10 0 -14 6 -4 6 12 10 42 11 39 1 42 3 19 8 -16 3 -32 15 -36 26 -9 24
-3 38 13 29 7 -4 9 -3 4 1 -10 12 22 45 38 39 7 -3 21 5 32 18 18 23 50 38 38
18 -3 -5 1 -10 10 -10 9 0 14 4 11 8 -6 10 40 10 49 1 3 -4 -2 -12 -12 -20 -9
-8 -14 -9 -10 -2 8 12 -18 12 -28 0 -3 -4 -2 -5 2 -2 8 6 34 -15 28 -24 -2 -4
2 -8 10 -8 8 0 13 4 12 9 -1 5 26 10 61 12 57 2 65 5 102 41 22 22 40 47 40
57 0 17 9 22 27 16 5 -2 7 -6 6 -9 -1 -4 6 -5 16 -2 10 3 22 0 25 -6 4 -6 19
-11 33 -11 20 0 24 -4 20 -20 -10 -37 17 -42 49 -9 16 17 24 29 17 27 -6 -2
-11 2 -11 7 0 6 3 9 7 8 4 -1 8 4 8 12 0 8 -5 11 -11 7 -6 -4 -14 -7 -18 -8
-5 -1 -11 -2 -14 -3 -4 0 -1 -7 5 -15 8 -10 9 -16 1 -21 -6 -3 -7 -12 -4 -18
4 -7 3 -8 -2 -4 -5 5 -9 23 -9 40 -1 21 -5 31 -14 29 -7 -1 -10 2 -6 8 5 8 11
8 19 1 7 -6 16 -8 20 -4 12 12 40 12 48 0 5 -8 8 -6 8 6 0 12 4 16 13 11 9 -6
9 -4 -1 8 -11 14 -2 16 100 17 61 1 114 4 117 6 2 3 -838 5 -1867 5 l-1872 0
0 -3231z m2807 3197 c-7 -14 -14 -24 -17 -24 -29 2 -60 -4 -60 -12 0 -6 11 -8
23 -6 15 3 24 -1 24 -10 0 -7 -4 -11 -9 -8 -4 3 -8 -2 -8 -11 0 -9 5 -13 10
-10 6 3 10 1 10 -6 0 -7 10 -9 25 -7 14 3 30 -1 36 -8 6 -8 8 -14 4 -14 -5 0
-1 -8 8 -18 10 -10 14 -22 10 -26 -5 -4 -3 -7 2 -6 26 6 26 -3 -1 -32 -16 -17
-24 -28 -17 -24 19 11 24 -11 6 -25 -14 -12 -16 -12 -8 1 4 8 -5 3 -22 -13
-20 -19 -30 -23 -30 -13 0 8 4 13 8 10 4 -2 10 0 14 6 12 20 -31 10 -45 -11
-8 -11 -20 -28 -26 -36 -8 -12 -20 8 -57 97 -26 62 -44 116 -41 121 3 5 1 9
-3 9 -5 0 -14 10 -22 23 -13 20 -13 21 2 8 10 -7 17 -10 17 -6 0 4 7 2 15 -5
8 -7 13 -16 10 -19 -2 -4 2 -8 10 -8 8 0 12 4 9 9 -3 4 1 8 8 8 8 0 15 10 16
23 1 22 -2 23 -48 22 -29 -1 -48 3 -47 9 5 29 25 35 114 36 l91 0 -11 -24z
m18 -5 c3 -5 2 -12 -3 -15 -5 -3 -9 1 -9 9 0 17 3 19 12 6z m455 -54 c0 -2
-12 -14 -27 -28 l-28 -24 24 28 c23 25 31 32 31 24z m-757 -89 c-144 -358
-267 -655 -275 -666 -15 -18 -48 13 -43 40 3 13 -4 28 -17 40 -27 23 -34 23
-17 1 12 -17 12 -17 -5 -1 -13 11 -16 22 -11 35 8 18 11 27 14 39 0 4 9 0 19
-7 9 -7 14 -9 10 -5 -4 5 -4 14 2 21 7 8 -7 11 -50 10 -32 0 -57 2 -54 4 2 2
-1 10 -7 17 -6 8 -9 20 -6 28 4 10 1 13 -7 10 -10 -4 -13 3 -10 23 2 25 1 26
-10 11 -19 -26 -83 -49 -148 -53 -32 -3 -38 0 -38 16 0 10 5 19 10 19 18 0 11
23 -16 51 -25 26 -46 107 -25 94 5 -3 8 -18 7 -35 -2 -23 1 -27 11 -18 7 6 13
21 13 34 0 25 69 99 92 99 7 0 12 10 12 23 -1 18 1 20 12 11 8 -6 14 -18 14
-26 0 -8 4 -12 9 -8 6 3 8 14 6 25 -2 11 -1 19 3 17 4 -1 9 3 10 8 9 26 64 52
96 46 5 -1 4 4 -2 12 -7 8 -8 18 -4 22 4 5 1 5 -6 1 -7 -4 -10 -12 -7 -17 4
-5 1 -9 -4 -9 -14 0 -14 13 1 28 8 8 15 9 25 0 10 -8 12 -7 8 4 -7 18 21 33
31 17 4 -6 16 -1 32 13 14 13 22 17 17 9 -6 -10 -4 -12 6 -5 8 4 21 9 29 11 8
1 35 5 60 9 25 4 52 8 60 8 8 1 20 4 26 8 6 4 14 4 18 0 10 -9 49 -10 56 -1 4
6 72 49 77 49 1 0 -10 -28 -24 -62z m292 -156 c-3 -3 7 -18 22 -34 15 -15 24
-28 20 -28 -4 0 -9 1 -10 3 -7 4 -37 -25 -32 -32 2 -4 -2 -8 -9 -8 -7 0 -13 6
-13 13 0 7 3 12 6 11 3 -1 6 3 6 8 0 6 -3 9 -6 8 -3 -1 -6 4 -6 12 0 8 3 13 6
12 3 -1 7 3 8 8 0 6 -2 9 -6 8 -4 -1 -8 4 -8 11 0 7 6 13 14 13 7 0 11 -3 8
-5z m-1007 -32 c-9 -14 -22 -19 -50 -17 -50 3 -49 17 1 17 22 0 43 5 46 10 3
6 8 10 11 10 2 0 -1 -9 -8 -20z m57 10 c3 -5 1 -10 -4 -10 -6 0 -11 5 -11 10
0 6 2 10 4 10 3 0 8 -4 11 -10z m-5 -26 c0 -2 -7 -4 -15 -4 -8 0 -15 4 -15 10
0 5 7 7 15 4 8 -4 15 -8 15 -10z m-2 -172 c2 -7 -1 -12 -8 -12 -6 0 -9 4 -6 9
4 5 1 12 -4 14 -6 3 -5 4 2 3 6 -1 14 -8 16 -14z m216 -110 c3 -5 -1 -9 -9 -9
-8 0 -12 4 -9 9 3 4 7 8 9 8 2 0 6 -4 9 -8z m-196 -112 c12 -20 7 -50 -10 -50
-5 0 -6 -4 -3 -10 3 -5 -1 -10 -9 -10 -8 0 -18 5 -21 10 -4 6 -10 8 -15 5 -4
-3 -7 3 -6 12 2 10 8 19 14 19 7 1 15 3 20 4 4 1 12 2 17 0 6 -1 4 4 -3 12
-10 10 -14 10 -21 0 -6 -10 -11 -8 -24 5 -15 17 -14 18 17 20 22 1 36 -4 44
-17z m348 -117 c-4 -26 -22 -34 -22 -10 0 13 5 24 12 24 6 0 11 -6 10 -14z
m92 -88 c-3 -3 -9 2 -12 12 -6 14 -5 15 5 6 7 -7 10 -15 7 -18z m-798 -11 c0
-8 -5 -12 -10 -9 -6 4 -8 11 -5 16 9 14 15 11 15 -7z m395 -24 c-16 -16 -35
-30 -44 -30 -8 0 -11 3 -8 7 4 3 2 12 -4 19 -8 10 -8 15 2 18 8 2 21 7 29 9 8
3 24 6 34 6 17 1 16 -3 -9 -29z m77 6 c7 4 8 2 4 -4 -12 -20 -26 -13 -25 11 1
17 2 18 6 4 2 -9 9 -14 15 -11z m-362 -10 c0 -3 -4 -8 -10 -11 -5 -3 -10 -1
-10 4 0 6 5 11 10 11 6 0 10 -2 10 -4z m-234 -1120 c1 -7 -4 -13 -11 -13 -7 0
-11 7 -10 16 2 9 4 18 4 20 2 8 15 -10 17 -23z m729 7 c-2 -10 -4 -19 -4 -20
-4 -13 2 -18 22 -18 12 0 23 -6 23 -12 1 -7 2 -14 4 -15 1 -2 3 -10 5 -19 3
-17 -10 -19 -32 -6 -8 5 -11 1 -8 -13 2 -11 0 -22 -6 -25 -5 -4 -9 -19 -9 -36
0 -16 -5 -29 -11 -29 -5 0 -7 6 -3 13 5 7 1 7 -10 -2 -24 -20 -126 -23 -126
-4 0 9 5 11 13 7 7 -5 6 0 -3 12 -27 34 -40 46 -40 35 0 -6 -7 -11 -15 -11 -8
0 -15 -6 -15 -14 0 -8 7 -16 15 -20 8 -3 15 -11 14 -18 0 -10 -2 -10 -6 0 -2
6 -13 12 -24 12 -12 0 -16 5 -13 15 4 10 0 15 -16 15 -11 0 -19 4 -16 9 5 8
-22 8 -31 1 -2 -2 -7 -4 -13 -5 -5 -1 -12 -4 -15 -5 -3 -1 -9 -4 -15 -5 -5 -1
-11 -3 -12 -4 -5 -4 -83 -12 -129 -15 -26 -1 -54 -8 -63 -15 -9 -7 -41 -13
-75 -13 -54 0 -63 3 -85 29 -16 19 -21 32 -15 40 7 8 5 11 -5 9 -9 -1 -18 -5
-21 -8 -4 -3 -15 -4 -26 -1 -19 5 -23 19 -19 57 1 10 -3 15 -8 12 -5 -3 -12 2
-14 12 -3 12 3 22 18 29 13 6 23 8 22 4 -2 -18 3 -31 13 -31 5 0 8 4 5 9 -7
11 21 8 31 -4 5 -4 1 -5 -7 0 -8 5 -12 4 -7 0 11 -13 38 -15 31 -3 -5 7 2 8
22 3 16 -4 43 -9 59 -9 17 -1 37 -5 45 -8 21 -9 64 -5 72 7 5 6 8 5 8 -2 0
-14 81 -19 94 -6 16 16 96 20 105 4 4 -7 15 -6 31 2 21 11 27 10 37 -2 9 -13
14 -14 24 -3 7 6 22 12 34 12 12 0 26 5 33 12 9 9 12 9 12 -1 0 -8 6 -11 16
-7 8 3 12 2 9 -4 -3 -6 -26 -10 -51 -10 -25 0 -44 -5 -44 -11 0 -6 7 -9 15 -5
8 3 15 1 15 -4 0 -6 5 -10 11 -10 5 0 8 4 5 8 -3 5 1 9 9 9 8 0 13 -3 10 -5
-3 -3 0 -11 6 -19 11 -13 10 -14 -11 -17 -5 0 -10 -4 -10 -8 0 -29 2 -31 11
-15 8 14 14 16 25 6 7 -6 12 -15 9 -19 -6 -9 12 -23 33 -26 10 -2 8 3 -4 17
-11 12 -13 19 -5 19 7 0 11 6 8 13 -2 6 -13 11 -24 9 -12 -2 -20 3 -20 13 0
12 8 15 30 11 29 -5 29 -4 10 17 -12 15 -13 18 -2 9 9 -6 19 -9 22 -5 4 3 7
-1 7 -10 0 -9 6 -16 13 -14 6 1 11 -4 10 -10 -4 -18 14 -16 20 1 3 7 0 19 -6
26 -9 10 -9 11 0 6 23 -13 22 12 -2 34 -23 22 -24 25 -8 42 20 22 22 22 18 1z
m-605 3 c0 -2 -7 -6 -15 -10 -8 -3 -15 -1 -15 4 0 6 7 10 15 10 8 0 15 -2 15
-4z m-50 -10 c0 -2 -9 -6 -20 -9 -11 -3 -18 -1 -14 4 5 9 34 13 34 5z m243
-53 c-7 -2 -21 -2 -30 0 -10 3 -4 5 12 5 17 0 24 -2 18 -5z m452 -73 c-3 -4 8
-6 24 -5 22 2 31 -3 34 -17 3 -11 3 -18 0 -15 -3 3 -17 1 -31 -4 -22 -8 -23
-8 -12 6 7 8 17 12 23 8 5 -3 7 -1 4 5 -9 13 -58 -9 -50 -23 3 -5 -3 -2 -13 8
-13 12 -15 20 -8 25 6 4 10 15 8 25 -2 15 0 16 12 6 7 -6 12 -15 9 -19z m-768
-7 c-4 -3 3 -18 15 -32 13 -14 15 -19 6 -12 -10 7 -18 10 -18 6 0 -4 -7 -2
-15 5 -12 10 -13 16 -4 26 6 8 14 14 17 14 3 0 2 -3 -1 -7z m857 -85 c-3 -4
-9 -8 -15 -8 -5 0 -9 4 -9 8 0 5 7 9 15 9 8 0 12 -4 9 -9z m-178 -23 c3 -19
-32 -50 -41 -35 -3 6 -3 10 2 9 20 -3 24 2 13 17 -11 12 -11 15 1 12 8 -2 13
3 11 12 -2 8 0 11 4 7 4 -4 9 -14 10 -22z m-92 -20 c-4 -8 -8 -15 -10 -15 -2
0 -4 7 -4 15 0 8 4 15 10 15 5 0 7 -7 4 -15z m241 -25 c-3 -5 -1 -10 6 -10 7
0 10 -3 6 -6 -9 -9 -28 6 -22 17 4 5 8 9 11 9 3 0 2 -4 -1 -10z m45 6 c0 -3
-4 -8 -10 -11 -5 -3 -10 -1 -10 4 0 6 5 11 10 11 6 0 10 -2 10 -4z m-10 -50
c0 -2 -8 -10 -17 -17 -16 -13 -17 -12 -4 4 13 16 21 21 21 13z m-185 -115 c3
-5 2 -12 -3 -15 -5 -3 -9 1 -9 9 0 17 3 19 12 6z m45 -53 c0 -4 -7 -8 -15 -8
-8 0 -15 4 -15 8 0 5 7 9 15 9 8 0 15 -4 15 -9z m-10 -28 c12 -8 9 -10 -12
-10 -16 0 -28 5 -28 10 0 13 20 13 40 0z m-125 -49 c3 -5 2 -12 -3 -15 -5 -3
-9 1 -9 9 0 17 3 19 12 6z m-870 -51 c3 -5 1 -10 -4 -10 -6 0 -11 5 -11 10 0
6 2 10 4 10 3 0 8 -4 11 -10z m919 2 c3 -5 -1 -9 -9 -9 -8 0 -12 4 -9 9 3 4 7
8 9 8 2 0 6 -4 9 -8z m-284 -62 c0 -5 -7 -10 -15 -10 -8 0 -15 5 -15 10 0 6 7
10 15 10 8 0 15 -4 15 -10z m-710 -16 c0 -10 -11 -11 -38 -5 -2 1 -1 5 2 9 8
13 36 10 36 -4z m135 -12 c-2 -3 9 -20 25 -38 29 -34 65 -129 54 -146 -8 -13
-35 12 -27 26 3 6 -5 1 -19 -12 -17 -15 -28 -20 -33 -13 -3 6 -10 9 -14 7 -4
-3 -8 1 -8 9 0 8 5 13 11 12 5 -1 11 5 11 13 1 8 7 14 14 12 7 -1 10 2 6 8 -3
6 -11 8 -16 5 -5 -4 -9 2 -9 11 0 10 -3 15 -6 11 -3 -3 -20 7 -37 22 -35 33
-31 61 8 61 15 0 24 4 21 8 -3 5 1 9 9 9 8 0 13 -2 10 -5z m593 -10 c8 -7 17
-10 21 -7 10 6 8 -36 -2 -52 -5 -7 -15 -13 -23 -13 -10 0 -12 5 -8 13 6 9 4 9
-8 -1 -13 -10 -17 -10 -22 3 -3 8 -14 15 -25 15 -10 0 -21 9 -24 20 -3 11 -1
18 4 14 5 -3 9 -1 9 5 0 5 10 11 23 13 32 6 40 5 55 -10z m-368 -27 c9 -11 16
-12 25 -5 6 5 15 7 19 3 4 -4 27 -6 51 -4 35 2 45 -1 45 -13 0 -18 -35 -22
-45 -5 -5 7 -14 4 -28 -8 -21 -18 -21 -18 -7 2 14 19 14 19 -3 6 -25 -19 -3
-44 35 -39 21 4 28 0 28 -13 0 -20 -24 -31 -38 -17 -6 6 -12 6 -17 -3 -6 -8
-4 -10 6 -4 12 7 12 5 1 -6 -11 -12 -14 -12 -22 1 -12 19 -31 20 -52 2 -21
-17 -25 -47 -5 -36 6 4 9 4 5 -1 -13 -14 13 -37 27 -25 10 8 15 8 21 -1 4 -7
3 -9 -4 -5 -6 3 -13 2 -17 -4 -4 -6 -12 -7 -18 -3 -7 4 -16 8 -22 8 -5 0 -10
7 -10 15 0 10 -8 14 -22 12 -18 -3 -24 5 -37 52 -9 30 -19 62 -22 71 -5 13 0
15 32 13 23 -1 39 2 42 10 5 16 17 15 32 -3z m210 -1 c0 -13 -3 -14 -13 -5 -8
6 -18 7 -22 3 -5 -4 -5 -1 -1 6 10 18 36 15 36 -4z m212 -17 c-5 -7 -8 -19 -7
-28 2 -9 -3 -16 -10 -16 -10 0 -13 24 -5 35 2 2 5 11 9 28 0 3 6 2 11 -1 7 -4
7 -11 2 -18z m-722 -6 c0 -5 -11 -11 -25 -13 -20 -4 -23 -3 -14 8 13 16 39 19
39 5z m500 -5 c0 -2 -7 -6 -15 -10 -8 -3 -15 -1 -15 4 0 6 7 10 15 10 8 0 15
-2 15 -4z m15 -36 c-3 -5 -13 -10 -21 -10 -8 0 -14 5 -14 10 0 6 9 10 21 10
11 0 17 -4 14 -10z m10 -41 c-2 -10 0 -21 4 -24 5 -2 9 -39 10 -81 1 -41 -2
-73 -7 -70 -5 3 -9 -1 -9 -9 0 -8 5 -11 10 -8 15 9 1 -118 -23 -212 -11 -44
-41 -123 -67 -175 -83 -167 -255 -317 -438 -382 -111 -40 -295 -63 -279 -36 6
10 4 10 -7 2 -19 -15 -49 -25 -46 -16 1 4 -3 7 -8 7 -5 0 -9 -3 -8 -6 1 -3 -4
-6 -11 -6 -7 0 -13 6 -13 13 0 7 5 12 11 11 6 -1 10 4 8 11 -1 8 2 11 7 8 5
-3 14 1 21 9 13 16 35 10 24 -6 -3 -5 -9 -7 -13 -5 -4 3 -8 -1 -8 -8 0 -7 6
-13 13 -13 7 0 12 5 11 11 -1 6 3 10 9 9 6 -1 11 4 11 12 0 8 -3 13 -6 12 -3
-1 -6 3 -6 8 0 6 3 9 6 8 3 -1 6 4 6 12 0 8 -3 13 -6 12 -3 -1 -6 3 -6 8 0 6
3 9 6 8 3 -1 6 4 6 12 0 8 -3 13 -6 12 -3 -1 -6 2 -6 8 0 5 3 9 6 8 3 -1 6 4
6 12 0 8 -3 13 -6 12 -3 -1 -6 3 -6 8 0 6 3 9 6 8 3 -1 6 4 6 12 0 8 -3 13 -6
12 -3 -1 -7 3 -8 8 0 6 2 9 6 8 4 -1 8 5 8 13 0 8 -3 12 -5 9 -3 -3 -11 0 -18
6 -8 7 -14 7 -19 -1 -4 -6 -2 -9 3 -8 6 2 10 -1 10 -7 0 -5 -3 -9 -7 -8 -4 1
-8 -4 -8 -12 0 -8 3 -13 6 -12 3 1 6 -2 6 -8 0 -5 -4 -9 -8 -7 -5 1 -5 -3 -1
-9 5 -8 3 -9 -6 -4 -9 6 -11 4 -5 -5 5 -8 4 -11 -3 -6 -6 3 -13 2 -16 -3 -11
-16 11 -22 24 -6 7 8 16 12 22 9 5 -3 4 -12 -3 -20 -6 -7 -16 -11 -22 -7 -5 3
-7 2 -4 -4 3 -5 0 -10 -8 -10 -8 0 -13 5 -12 11 1 6 -3 10 -9 9 -6 -1 -11 4
-11 12 0 8 5 13 11 12 6 -1 10 4 9 10 -2 7 0 12 5 10 4 -1 7 2 7 8 0 5 -3 9
-7 8 -5 -2 -7 3 -5 10 1 6 -3 11 -9 10 -6 -1 -11 4 -11 12 0 8 5 13 11 12 6
-1 10 3 9 9 -1 6 17 10 48 9 27 -1 49 1 49 4 0 4 30 12 66 19 121 23 229 90
303 189 58 78 97 175 114 288 l13 79 111 1 c77 0 115 5 127 14 9 7 14 16 11
20 -5 10 -107 7 -123 -3 -6 -4 -12 -5 -12 -2 0 2 -2 11 -5 18 -4 11 12 14 77
17 45 1 85 4 89 6 3 3 5 17 4 32 -1 22 -6 28 -23 27 -13 -1 -20 1 -17 5 4 3
11 6 16 6 5 0 8 5 7 10 -2 6 -7 9 -11 7 -5 -1 -6 1 -3 6 10 16 34 9 31 -9z
m-363 -240 c-1 -24 -7 -45 -12 -47 -5 -2 -6 -10 -3 -17 7 -21 -50 -138 -93
-190 -45 -55 -126 -110 -201 -136 -62 -21 -77 -23 -69 -10 3 5 -9 8 -27 7 -27
-1 -32 2 -31 22 1 12 -5 23 -12 23 -28 3 -32 4 -40 12 -5 4 2 10 14 14 22 5
22 7 6 24 -15 17 -15 19 -1 19 9 0 18 -4 22 -9 3 -6 15 -8 26 -6 17 4 19 2 9
-10 -7 -8 -16 -13 -20 -10 -4 3 -13 -2 -20 -10 -10 -13 -9 -15 9 -15 14 0 21
-6 21 -18 0 -10 7 -19 15 -19 8 0 13 3 10 5 -3 3 2 10 9 16 19 14 25 80 9 82
-7 1 -30 3 -50 4 -34 3 -35 3 -9 7 39 6 98 -6 91 -18 -4 -5 0 -9 7 -9 9 0 13
10 12 30 -1 16 2 28 6 27 4 -1 7 1 7 4 -1 3 4 13 12 22 11 14 11 18 -3 23 -9
3 -27 3 -41 0 -14 -4 -31 -3 -38 1 -20 12 -37 12 -37 0 0 -7 -4 -6 -9 3 -6 8
-7 18 -4 24 3 5 1 6 -5 2 -6 -3 -13 -2 -16 3 -11 17 8 19 46 6 21 -7 35 -9 32
-4 -5 9 11 11 99 12 50 1 57 9 31 35 -21 21 -53 26 -71 10 -8 -6 -13 -7 -11
-2 2 5 -2 10 -7 12 -5 2 -20 13 -32 24 -27 25 -15 48 24 48 16 0 22 4 17 12
-4 6 -3 8 4 4 6 -3 13 -2 17 4 4 6 10 8 15 5 5 -3 11 -1 14 3 6 10 56 4 56 -7
0 -3 17 -5 37 -5 21 1 41 -3 45 -9 4 -7 12 -5 22 5 8 9 13 18 10 21 -8 8 19 3
33 -6 6 -4 15 -2 19 4 5 8 3 9 -6 4 -9 -5 -11 -4 -6 4 6 9 11 9 22 0 11 -9 14
-8 14 4 0 9 7 14 18 13 14 -3 16 -12 14 -47z m-272 -103 c-14 -14 -37 -16 -37
-2 0 7 11 12 24 12 15 0 20 -3 13 -10z m-236 -17 c-9 -15 14 -19 26 -5 11 14
46 14 59 0 3 -4 -2 -4 -11 -1 -24 9 -42 -17 -23 -33 11 -9 12 -16 5 -25 -5 -6
-7 -14 -5 -17 3 -3 -3 -8 -14 -11 -11 -3 -19 -2 -18 2 1 3 -2 6 -8 6 -5 0 -9
-3 -8 -6 1 -3 -4 -6 -11 -6 -7 0 -13 6 -13 13 0 7 5 12 11 11 6 -1 10 4 9 11
-2 6 4 12 13 12 8 0 13 -4 9 -9 -3 -5 -1 -12 4 -15 5 -4 12 -2 15 3 4 5 2 12
-4 16 -6 4 -8 10 -5 15 3 5 -3 7 -15 5 -11 -2 -19 1 -17 8 1 6 -3 11 -10 12
-7 0 -17 5 -22 11 -8 7 -4 10 13 10 14 0 23 -3 20 -7z m-81 -6 c-7 -2 -19 -2
-25 0 -7 3 -2 5 12 5 14 0 19 -2 13 -5z m242 -88 c-2 -28 -15 -48 -15 -22 0
10 -6 17 -12 17 -8 0 -5 7 6 15 11 8 20 15 21 15 0 0 0 -11 0 -25z m-155 -60
c0 -2 -6 -8 -13 -14 -10 -8 -14 -7 -14 2 0 8 6 14 14 14 7 0 13 -1 13 -2z m-3
-90 c0 -6 -6 -12 -12 -12 -6 0 -12 6 -12 12 0 6 6 12 12 12 6 0 12 -6 12 -12z
m42 -291 c-6 -7 -15 -12 -19 -9 -5 3 -11 1 -15 -4 -3 -6 3 -8 15 -6 26 5 34
-9 14 -26 -21 -17 -44 -20 -41 -6 1 7 -3 11 -9 10 -6 -1 -11 4 -11 12 0 8 5
13 11 12 6 -1 10 4 8 11 -1 8 2 11 7 8 5 -3 14 1 21 9 7 8 16 12 22 9 5 -3 4
-12 -3 -20z m-242 -105 c-1 -4 3 -6 8 -5 6 0 9 4 8 7 -3 10 46 4 57 -7 8 -8 3
-10 -17 -9 -39 3 -67 -22 -50 -44 10 -14 10 -14 -4 -4 -9 7 -18 11 -21 8 -2
-3 -5 2 -5 9 0 8 3 14 6 13 3 -1 7 3 8 8 0 6 -2 9 -6 8 -4 -1 -8 4 -8 11 0 7
6 13 13 13 7 0 12 -4 11 -8z m126 -16 c-7 -2 -19 -2 -25 0 -7 3 -2 5 12 5 14
0 19 -2 13 -5z m122 -225 c3 -3 -1 -11 -10 -18 -8 -7 -15 -11 -16 -9 -6 31 -5
37 7 35 7 -1 16 -5 19 -8z m-205 -53 c-6 -8 -6 -15 2 -23 11 -11 7 -15 -9 -9
-4 1 -8 16 -8 34 -1 26 1 30 12 21 9 -7 10 -15 3 -23z m-196 -76 c-3 -5 -10
-7 -15 -3 -5 3 -7 10 -3 15 3 5 10 7 15 3 5 -3 7 -10 3 -15z m16 -95 c0 -8 -5
-12 -10 -9 -6 4 -8 11 -5 16 9 14 15 11 15 -7z m270 -90 c0 -2 -9 -4 -21 -4
-11 0 -18 4 -14 10 5 8 35 3 35 -6z m-145 -83 c3 -5 2 -12 -3 -15 -5 -3 -9 1
-9 9 0 17 3 19 12 6z m53 -14 c-1 -13 -8 -24 -15 -24 -6 0 -9 5 -5 11 4 6 7
14 8 19 3 15 4 17 9 17 3 0 4 -10 3 -23z m312 -237 c5 0 10 -4 10 -10 0 -5 -5
-10 -10 -10 -20 0 -37 24 -32 44 5 19 6 18 13 -2 5 -12 13 -22 19 -22z m61
-77 c13 -16 12 -17 -3 -4 -10 7 -18 15 -18 17 0 8 8 3 21 -13z m-173 -38 c0
-25 -12 -33 -23 -16 -3 5 -1 12 5 16 6 4 8 11 5 16 -4 5 -2 9 3 9 5 0 10 -11
10 -25z m-39 -109 c8 -10 9 -16 1 -21 -6 -4 -9 -1 -8 7 2 7 -3 12 -10 10 -8
-1 -11 2 -7 8 8 13 10 13 24 -4z m158 -2 c-3 -3 -12 -4 -19 -1 -8 3 -5 6 6 6
11 1 17 -2 13 -5z m43 -20 c0 -8 -19 -13 -24 -6 -3 5 1 9 9 9 8 0 15 -2 15 -3z
m58 -20 c8 -2 18 -6 21 -11 3 -4 18 -14 34 -22 15 -8 27 -21 27 -28 0 -8 8
-17 19 -21 10 -4 30 -20 43 -37 28 -34 75 -120 60 -111 -5 3 -15 -1 -22 -9 -7
-8 -11 -15 -9 -16 2 0 12 -2 22 -4 22 -4 28 -9 31 -27 2 -7 7 -22 12 -33 11
-26 11 -234 0 -260 -5 -11 -11 -31 -13 -45 -2 -14 -8 -27 -14 -28 -5 -2 -7 -7
-4 -12 3 -5 -2 -16 -11 -24 -8 -9 -13 -16 -9 -16 14 0 -29 -62 -75 -110 -37
-38 -56 -51 -70 -47 -11 3 -18 1 -15 -3 3 -5 1 -11 -5 -15 -5 -3 -10 1 -10 10
0 9 -4 14 -9 11 -5 -3 -14 1 -21 9 -7 8 -16 12 -21 9 -5 -3 -8 0 -7 8 2 7 -3
12 -9 11 -7 -2 -12 3 -10 10 1 6 -3 11 -9 10 -6 -1 -11 4 -11 12 0 8 5 13 11
12 6 -1 10 4 8 11 -1 6 2 11 7 10 5 -2 9 2 9 7 0 6 -4 9 -9 7 -5 -1 -8 4 -7
10 2 7 -2 12 -8 11 -6 -1 -11 5 -11 13 0 11 4 11 19 -3 17 -15 23 -11 19 11
-1 5 5 4 13 -4 9 -7 16 -9 16 -5 0 4 8 1 17 -6 10 -8 14 -9 10 -2 -5 8 7 14
40 19 27 3 53 9 58 12 15 9 35 11 35 4 0 -4 9 -13 19 -19 15 -10 19 -9 17 2
-1 8 -6 18 -11 22 -4 5 -5 1 0 -7 5 -9 5 -12 -1 -7 -5 5 -9 14 -9 20 -1 7 -6
11 -11 10 -6 -1 -11 4 -11 12 0 8 5 13 11 12 5 -1 10 12 10 28 0 17 -5 29 -10
28 -6 -1 -11 4 -11 12 0 8 5 13 11 12 5 -1 10 12 10 28 0 17 -5 29 -10 28 -6
-1 -11 4 -11 12 0 8 5 13 11 12 5 -1 10 12 10 28 0 17 -5 29 -10 28 -6 -1 -11
4 -11 12 0 8 5 13 11 12 5 -1 10 12 10 28 0 17 -5 29 -10 28 -6 -1 -11 4 -11
12 0 8 5 13 11 12 5 -1 10 12 10 28 0 17 -5 29 -10 28 -6 -1 -11 4 -11 12 0 7
8 12 18 10 10 -2 24 4 31 13 11 15 11 16 -4 4 -10 -8 -18 -9 -22 -3 -4 6 -14
7 -22 4 -9 -3 -20 0 -24 7 -10 15 -30 4 -30 -16 0 -11 -8 -14 -30 -10 -19 2
-30 0 -30 -7 0 -8 -3 -8 -8 -2 -8 12 -41 13 -59 2 -6 -4 -14 -3 -18 3 -4 6
-11 7 -17 4 -7 -4 -8 -2 -4 5 6 8 12 9 20 2 21 -17 28 1 9 21 -10 11 -13 18
-8 16 6 -2 10 2 10 7 0 6 -3 9 -7 8 -5 -2 -7 3 -5 10 1 6 -3 11 -9 10 -6 -1
-11 4 -11 12 0 8 5 13 11 12 6 -1 10 4 9 11 -2 6 1 11 6 10 5 -2 9 2 9 7 0 6
-3 9 -7 8 -4 -1 -8 4 -8 12 0 7 8 12 18 10 10 -2 21 1 25 6 4 6 11 5 20 -2 12
-10 15 -10 12 1 -5 21 -22 39 -32 32 -5 -3 -6 0 -3 5 8 13 -17 35 -29 25 -4
-4 -3 0 4 9 6 9 8 20 4 25 -4 4 1 2 12 -6 10 -8 25 -15 34 -16z m-47 -51 c13
-16 12 -17 -3 -4 -10 7 -18 15 -18 17 0 8 8 3 21 -13z m72 -640 c-7 -2 -21 -2
-30 0 -10 3 -4 5 12 5 17 0 24 -2 18 -5z m-442 -426 c-7 -7 -7 -14 0 -24 7 -7
10 -13 8 -14 -34 -7 -38 -6 -32 4 4 7 8 20 9 30 2 27 3 29 15 21 8 -4 8 -9 0
-17z m-196 -115 c-3 -3 -12 -7 -21 -8 -11 -2 -12 1 -5 10 6 7 7 17 3 22 -4 4
1 2 11 -5 9 -8 15 -16 12 -19z"/>
<path d="M2171 6523 c3 -19 -3 -22 -25 -13 -18 6 -28 5 -36 -5 -9 -11 -7 -12
9 -8 12 3 21 1 21 -5 0 -8 39 -10 69 -3 2 1 -2 7 -8 14 -6 8 -8 17 -4 20 3 4
-1 7 -10 7 -9 0 -16 -3 -16 -7z"/>
<path d="M2046 6502 c-3 -5 1 -9 9 -9 8 0 12 4 9 9 -3 4 -7 8 -9 8 -2 0 -6 -4
-9 -8z"/>
<path d="M2250 6479 c-10 -12 -21 -17 -36 -13 -21 5 -25 -6 -14 -36 1 -3 2 -8
1 -12 0 -5 6 -8 15 -8 8 0 12 -5 9 -10 -4 -6 -10 -8 -15 -5 -5 3 -11 1 -15 -5
-3 -5 1 -10 9 -10 26 0 28 -20 4 -29 -15 -7 -17 -10 -7 -10 22 -1 44 25 29 34
-6 3 -8 11 -4 16 3 5 10 6 16 3 6 -4 8 -2 5 3 -4 6 0 16 8 23 8 7 15 19 15 27
0 8 4 12 8 9 13 -8 10 18 -3 31 -9 8 -16 6 -25 -8z m-11 -53 c0 -7 -2 -6 -6 2
-2 6 -11 12 -19 12 -9 0 -12 5 -9 10 8 13 35 -6 34 -24z"/>
<path d="M2035 6472 c-12 -13 -3 -30 13 -25 21 5 25 30 5 30 -7 0 -15 -3 -18
-5z"/>
<path d="M2046 6348 c3 -5 10 -6 15 -3 13 9 11 12 -6 12 -8 0 -12 -4 -9 -9z"/>
<path d="M1993 6330 c-17 -27 -1 -34 44 -19 30 9 33 13 19 21 -9 5 -21 6 -26
3 -6 -3 -10 -1 -10 4 0 17 -14 13 -27 -9z"/>
<path d="M2215 6274 c-15 -11 -16 -17 -7 -26 17 -17 39 -18 39 -2 0 8 -7 14
-14 14 -8 0 -11 5 -8 11 5 7 13 5 24 -5 23 -21 49 -22 32 -2 -17 21 -45 25
-66 10z"/>
<path d="M2121 6237 c-1 -21 21 -18 27 4 3 12 2 12 -6 0 -8 -11 -10 -11 -15 0
-4 10 -6 8 -6 -4z"/>
<path d="M2095 6170 c-8 -13 18 -23 42 -17 12 3 8 5 -10 6 -16 0 -26 5 -22 11
3 6 4 10 1 10 -3 0 -8 -5 -11 -10z"/>
<path d="M2166 6082 c-3 -5 1 -9 9 -9 8 0 12 4 9 9 -3 4 -7 8 -9 8 -2 0 -6 -4
-9 -8z"/>
<path d="M2214 5994 c3 -22 22 -38 31 -25 3 6 3 10 -2 9 -4 -2 -9 2 -9 7 -1 6
3 9 10 7 6 -2 7 0 3 4 -14 14 -35 12 -33 -2z"/>
<path d="M2815 6430 c-3 -5 -5 -10 -3 -11 33 -8 38 -7 27 7 -14 17 -16 17 -24
4z"/>
<path d="M2139 4617 c6 -8 9 -16 6 -19 -3 -2 2 -5 10 -5 13 0 13 3 -2 19 -19
21 -31 25 -14 5z"/>
<path d="M1543 4563 c0 -7 4 -10 8 -7 4 2 11 0 14 -6 5 -8 11 -7 21 1 8 6 14
8 14 4 0 -4 8 -1 17 6 11 10 14 10 9 2 -5 -9 -1 -13 10 -13 14 0 16 2 5 13
-16 16 -98 16 -98 0z"/>
<path d="M2075 4551 c-3 -5 -2 -12 3 -15 5 -3 9 1 9 9 0 17 -3 19 -12 6z"/>
<path d="M2002 4501 c4 -13 18 -16 19 -4 0 4 -5 9 -11 12 -7 2 -11 -2 -8 -8z"/>
<path d="M1160 3922 c0 -12 5 -22 11 -22 5 0 7 -4 4 -10 -9 -15 1 -12 14 3 8
11 6 18 -9 32 -19 18 -20 17 -20 -3z"/>
<path d="M761 3056 c-8 -10 -8 -16 2 -24 10 -9 13 -6 13 13 0 29 0 29 -15 11z"/>
<path d="M985 3580 c-3 -5 -5 -10 -3 -11 27 -6 39 -5 45 4 3 7 3 9 -2 5 -4 -4
-14 -3 -21 3 -8 7 -14 7 -19 -1z"/>
<path d="M1206 3542 c-3 -5 1 -15 8 -21 11 -10 14 -9 12 3 -3 21 -13 29 -20
18z"/>
<path d="M984 3359 c-3 -5 -11 -6 -17 -3 -7 4 -9 4 -5 -1 4 -4 3 -14 -3 -21
-6 -8 -6 -14 0 -18 5 -4 12 -2 16 4 4 6 12 7 18 3 20 -12 34 -11 34 3 0 7 -3
12 -6 11 -3 -1 -7 3 -7 8 -1 6 3 9 10 7 6 -2 7 0 3 4 -11 12 -36 13 -43 3z
m13 -6 c-4 -3 -1 -13 6 -22 10 -14 10 -14 -4 -4 -9 7 -20 9 -25 5 -4 -4 -2 1
5 11 7 9 16 17 19 17 3 0 2 -3 -1 -7z"/>
<path d="M750 2887 c0 -2 6 -10 14 -16 11 -9 16 -9 22 1 4 7 4 10 -1 6 -4 -4
-14 -3 -22 3 -7 6 -13 9 -13 6z"/>
<path d="M999 1637 c29 -32 28 -31 28 -12 0 8 -3 13 -5 10 -3 -3 -15 3 -26 12
-15 13 -14 10 3 -10z"/>
<path d="M995 1570 c-4 -6 -12 -7 -18 -3 -8 5 -8 2 0 -9 11 -12 9 -18 -7 -33
l-20 -18 21 -23 c14 -15 17 -24 9 -29 -8 -5 -8 -10 0 -20 11 -14 34 -14 47 -1
4 4 3 6 -3 4 -7 -1 -12 2 -12 7 0 6 3 9 7 8 4 -1 8 4 8 12 0 8 -5 13 -11 12
-5 -1 -10 7 -11 18 0 11 -4 25 -8 32 -5 8 -1 11 11 8 11 -2 19 3 19 10 0 8 -5
13 -11 12 -6 -1 -10 4 -8 11 3 15 -4 16 -13 2z m-13 -67 c-1 -4 6 -15 14 -25
11 -11 12 -18 4 -23 -5 -3 -7 -11 -4 -17 4 -7 2 -8 -5 -4 -8 6 -9 12 -2 20 7
9 7 16 -1 24 -7 7 -13 19 -14 28 -1 9 0 14 3 11 2 -3 5 -9 5 -14z"/>
<path d="M1015 1511 c-3 -5 -2 -12 3 -15 5 -3 9 1 9 9 0 17 -3 19 -12 6z"/>
<path d="M1140 1510 c0 -6 7 -10 15 -10 8 0 15 2 15 4 0 2 -7 6 -15 10 -8 3
-15 1 -15 -4z"/>
<path d="M1065 1491 c3 -5 -3 -12 -12 -14 -10 -3 -6 -4 10 -4 28 1 39 27 11
27 -8 0 -13 -4 -9 -9z"/>
<path d="M1175 1400 c12 -20 14 -59 3 -66 -4 -3 -5 -11 -1 -17 11 -17 11 -57
1 -63 -4 -3 -5 -11 -1 -17 11 -17 11 -50 1 -64 -5 -6 -5 -14 0 -17 10 -6 10
-46 -1 -63 -4 -6 -3 -14 1 -17 10 -6 10 -46 -1 -62 -3 -6 2 -19 13 -29 11 -10
21 -15 21 -12 3 14 7 27 9 30 5 7 7 36 2 34 -4 -1 -7 3 -7 8 0 6 2 9 5 8 3 -1
6 14 6 32 0 18 -3 33 -6 32 -3 -1 -5 3 -5 8 0 5 2 9 5 8 3 -1 6 14 6 32 0 18
-3 33 -6 32 -3 -1 -5 3 -5 8 0 6 2 9 5 8 3 -1 6 14 6 32 0 18 -3 33 -6 32 -3
-1 -5 3 -5 8 0 6 2 9 5 8 3 -1 6 14 6 32 0 18 -3 33 -6 32 -3 -1 -6 3 -6 8 -1
6 2 9 8 7 5 -1 6 2 3 8 -4 6 -10 9 -13 6 -3 -3 -14 2 -25 11 -14 13 -18 14
-12 3z m41 -74 c1 -9 -5 -21 -14 -28 -10 -8 -13 -9 -9 -1 4 6 3 15 -3 18 -8 5
-8 11 -1 19 6 7 9 15 7 18 -1 3 2 2 7 -3 6 -5 12 -15 13 -23z m0 -80 c1 -9 -5
-21 -14 -28 -10 -8 -13 -9 -9 -1 4 6 3 15 -3 18 -8 5 -8 11 -1 19 6 7 9 15 7
18 -1 3 2 2 7 -3 6 -5 12 -15 13 -23z m0 -80 c1 -9 -5 -21 -14 -28 -10 -8 -13
-9 -9 -1 4 6 3 15 -3 18 -8 5 -8 11 -1 19 6 7 9 15 7 18 -1 3 2 2 7 -3 6 -5
12 -15 13 -23z m0 -80 c1 -9 -5 -21 -14 -28 -10 -8 -13 -9 -9 -1 4 6 3 15 -3
18 -8 5 -8 11 -1 19 6 7 9 15 7 18 -1 3 2 2 7 -3 6 -5 12 -15 13 -23z m-6 -81
c-5 -6 -6 -16 -2 -21 4 -4 -1 -2 -11 5 -12 10 -14 17 -7 26 5 6 6 16 2 21 -4
4 1 2 11 -5 12 -10 14 -17 7 -26z"/>
<path d="M1195 1331 c-3 -5 -2 -12 3 -15 5 -3 9 1 9 9 0 17 -3 19 -12 6z"/>
<path d="M1195 1251 c-3 -5 -2 -12 3 -15 5 -3 9 1 9 9 0 17 -3 19 -12 6z"/>
<path d="M1195 1171 c-3 -5 -2 -12 3 -15 5 -3 9 1 9 9 0 17 -3 19 -12 6z"/>
<path d="M1195 1091 c-3 -5 -2 -12 3 -15 5 -3 9 1 9 9 0 17 -3 19 -12 6z"/>
<path d="M1110 942 c0 -17 21 -25 31 -13 5 6 6 9 3 6 -4 -3 -13 0 -21 6 -9 8
-13 8 -13 1z"/>
<path d="M974 929 c-2 -4 1 -11 7 -14 7 -5 3 -15 -10 -29 l-21 -22 25 -24 c29
-27 52 -34 52 -14 0 7 -3 12 -6 11 -3 -1 -6 3 -6 8 0 6 3 9 6 8 3 -1 6 4 6 12
0 8 -3 13 -6 12 -3 -1 -7 3 -7 8 -1 6 1 9 5 8 4 -1 8 4 8 12 0 8 -5 13 -11 12
-6 -1 -10 3 -9 9 2 12 -25 15 -33 3z m26 -34 c-8 -9 -8 -15 0 -20 8 -5 8 -11
1 -19 -7 -9 -7 -17 2 -26 6 -8 2 -6 -10 3 -23 20 -24 36 -5 59 9 11 9 18 -1
28 -10 12 -9 12 6 1 13 -10 14 -17 7 -26z"/>
<path d="M983 865 c0 -8 4 -12 9 -9 5 3 6 10 3 15 -9 13 -12 11 -12 -6z"/>
<path d="M3606 6684 c-9 -25 -7 -1807 3 -1822 4 -8 19 -12 32 -10 l24 3 3 893
2 894 378 -4 c417 -5 433 -7 542 -73 240 -146 316 -472 164 -703 -82 -125
-203 -202 -354 -225 -75 -11 -85 -15 -88 -35 -2 -15 55 -96 204 -289 115 -147
242 -312 283 -365 42 -54 83 -98 91 -98 17 0 40 19 40 31 0 4 -117 159 -261
344 -143 185 -259 338 -257 339 2 1 27 8 57 14 192 43 365 216 416 417 19 75
19 192 0 274 -48 203 -226 379 -423 420 -33 7 -203 11 -451 11 -355 0 -400 -2
-405 -16z"/>
<path d="M5165 6688 c-3 -7 -4 -422 -3 -923 l3 -910 25 0 25 0 0 920 0 920
-23 3 c-12 2 -24 -3 -27 -10z"/>
<path d="M5525 6688 c-3 -7 -4 -144 -3 -303 3 -287 3 -290 24 -293 18 -2 59
48 230 275 213 284 235 324 187 331 -19 3 -51 -35 -203 -239 l-180 -242 -2
239 -3 239 -23 3 c-12 2 -24 -3 -27 -10z"/>
<path d="M6065 6274 c-170 -234 -314 -436 -319 -448 -8 -20 36 -86 328 -497
211 -296 344 -475 356 -477 11 -2 23 5 29 16 9 17 -37 87 -314 477 -179 252
-325 462 -325 467 0 5 138 198 306 429 172 238 304 428 302 437 -2 10 -14 18
-28 20 -22 2 -58 -44 -335 -424z"/>
<path d="M14590 6533 c-202 -21 -390 -106 -531 -241 -205 -194 -304 -472 -278
-777 27 -315 201 -593 456 -727 139 -73 241 -99 411 -105 156 -6 254 5 360 41
74 24 96 47 71 72 -15 14 -19 14 -55 -1 -176 -74 -463 -73 -665 2 -83 31 -228
123 -280 179 -98 104 -162 218 -205 361 -32 106 -44 317 -25 429 63 363 308
618 660 689 126 26 334 17 458 -20 96 -28 127 -28 121 2 -11 60 -302 116 -498
96z"/>
<path d="M15382 6508 c-17 -17 -17 -1809 0 -1826 9 -9 144 -12 544 -12 460 0
533 2 544 15 10 12 10 18 0 30 -11 13 -81 15 -521 15 l-509 0 0 23 c0 12 0
406 0 875 0 584 -3 858 -10 872 -12 23 -30 26 -48 8z"/>
<path d="M15742 6512 c-10 -7 -12 -162 -10 -743 l3 -734 361 -3 c313 -2 363 0
374 13 10 12 10 18 0 30 -11 13 -62 15 -346 15 l-334 0 -2 712 c-3 624 -5 713
-18 715 -8 2 -21 -1 -28 -5z"/>
<path d="M16792 6508 c-17 -17 -17 -1809 0 -1826 9 -9 130 -12 484 -12 405 0
473 2 484 15 7 8 10 22 6 30 -5 13 -64 15 -466 15 l-460 0 0 865 0 865 460 0
c402 0 461 2 466 15 4 8 1 22 -6 30 -11 13 -79 15 -484 15 -354 0 -475 -3
-484 -12z"/>
<path d="M18105 6508 c-3 -7 -4 -422 -3 -923 l3 -910 25 0 25 0 3 893 2 892
454 0 c391 0 455 2 466 15 10 12 10 18 0 30 -11 13 -78 15 -492 15 -374 0
-480 -3 -483 -12z"/>
<path d="M3065 6472 c3 -3 -1 -12 -8 -20 -10 -13 -9 -14 3 -7 8 5 24 9 35 8
16 -1 17 -1 2 3 -9 3 -15 9 -13 13 3 4 -1 8 -9 8 -8 0 -13 -3 -10 -5z"/>
<path d="M2940 6450 c0 -5 5 -10 11 -10 5 0 7 5 4 10 -3 6 -8 10 -11 10 -2 0
-4 -4 -4 -10z"/>
<path d="M2817 6339 c10 -10 10 -16 0 -28 -10 -14 -10 -14 4 -4 9 7 18 10 22
7 3 -3 4 2 3 13 -2 10 -11 20 -22 21 -15 3 -17 1 -7 -9z"/>
<path d="M3964 6325 c-4 -8 -4 -22 0 -30 4 -13 35 -15 188 -15 164 0 186 -2
225 -21 103 -50 109 -189 10 -249 -24 -15 -50 -20 -109 -20 -80 0 -113 -15
-101 -45 8 -21 45 -28 121 -23 114 8 194 66 217 156 27 104 -21 206 -117 247
-54 22 -426 22 -434 0z"/>
<path d="M2510 6310 c-8 -5 -12 -11 -9 -14 3 -3 14 1 25 9 21 16 8 20 -16 5z"/>
<path d="M8380 6271 c25 -4 63 -17 85 -28 41 -22 113 -92 134 -132 10 -19 6
-18 -36 9 -26 17 -73 38 -103 46 -30 9 -73 28 -94 42 -36 25 -48 27 -135 27
-81 -1 -106 -5 -160 -28 -75 -32 -201 -109 -312 -192 -44 -33 -110 -81 -147
-108 -80 -56 -152 -122 -152 -138 0 -8 5 -7 17 2 10 8 1 -8 -19 -36 -61 -85
-113 -205 -89 -205 6 0 14 15 20 34 11 42 58 111 102 151 19 17 27 21 18 10
-31 -39 -32 -47 -3 -29 20 14 10 -4 -37 -61 -87 -106 -125 -163 -160 -240 -38
-84 -47 -127 -59 -265 -9 -104 -38 -284 -55 -335 -10 -31 63 54 90 105 45 84
25 29 -25 -69 -41 -81 -52 -112 -60 -182 -6 -46 -17 -124 -25 -174 -44 -265
-54 -353 -49 -462 l4 -111 -30 -22 c-45 -32 -190 -97 -231 -103 -20 -3 -66
-17 -103 -32 -64 -26 -69 -26 -139 -14 -47 8 -91 23 -127 45 -87 53 -134 65
-237 63 -81 -1 -97 1 -130 22 -22 13 -61 25 -93 28 -47 5 -55 9 -54 26 0 11
98 154 218 318 119 163 219 303 222 310 6 18 -21 41 -40 34 -8 -3 -117 -148
-243 -321 -252 -349 -231 -330 -330 -299 -52 16 -55 16 -96 -4 -37 -18 -45
-19 -62 -7 -29 22 -99 17 -233 -16 -126 -31 -168 -36 -189 -22 -10 6 -13 89
-15 338 l-3 329 -25 0 -25 0 -5 -333 -5 -333 -37 -22 c-20 -12 -56 -35 -81
-50 -40 -25 -161 -56 -173 -45 -2 3 3 25 12 49 22 61 29 192 15 275 -37 214
-222 410 -429 453 -34 7 -198 11 -451 11 -355 0 -400 -2 -405 -16 -11 -29 -7
-1794 4 -1815 13 -23 46 -25 54 -3 3 9 6 412 6 896 l0 880 383 -4 c363 -4 385
-5 441 -26 209 -77 340 -266 338 -487 -1 -98 -28 -191 -78 -267 l-37 -55 -61
4 c-47 4 -80 0 -141 -19 -44 -14 -109 -31 -145 -38 -67 -13 -160 -58 -241
-116 -30 -22 -53 -50 -69 -83 -22 -48 -25 -50 -41 -35 -10 9 -26 14 -36 12
-15 -3 -19 -16 -23 -93 -4 -79 -9 -97 -39 -150 -19 -33 -55 -86 -79 -119 -68
-89 -85 -130 -87 -216 -1 -42 -8 -105 -15 -142 -16 -78 -7 -119 41 -205 39
-68 72 -94 178 -144 86 -40 89 -42 116 -100 43 -90 48 -92 161 -88 71 3 98 1
101 -8 4 -10 -75 -13 -359 -15 l-363 -3 -3 -918 c-2 -813 0 -918 13 -923 8 -4
22 -1 30 6 13 11 15 126 15 896 l0 884 358 0 c396 0 437 -5 546 -63 33 -17 86
-57 116 -87 59 -60 120 -166 120 -210 0 -14 -20 -89 -45 -166 -24 -76 -57
-190 -72 -253 l-28 -114 -50 -34 c-63 -41 -145 -71 -222 -79 -60 -7 -83 -18
-83 -38 0 -7 63 -93 141 -192 131 -167 140 -181 135 -214 -3 -19 -15 -91 -26
-160 -19 -115 -28 -189 -46 -387 -5 -47 -3 -73 3 -73 6 0 15 56 22 128 10 109
51 395 67 471 4 21 7 22 19 10 16 -16 11 -84 -24 -299 -12 -69 -21 -146 -21
-171 0 -72 12 -139 24 -139 6 0 33 55 60 122 26 68 64 158 84 202 l36 78 18
-22 c11 -13 17 -28 14 -34 -2 -6 -33 -86 -69 -178 l-65 -168 810 0 c644 0 808
3 802 13 -6 10 -4 10 7 0 10 -10 218 -13 970 -13 l958 0 11 57 c16 83 40 176
46 182 15 16 19 -28 8 -87 -18 -90 -17 -102 2 -77 59 74 154 349 249 723 53
204 72 267 119 386 20 49 36 97 36 107 0 10 5 21 10 24 35 21 -37 -330 -104
-506 -13 -36 -43 -133 -65 -215 -25 -92 -63 -201 -100 -282 -58 -130 -145
-290 -166 -304 -6 -5 -4 -8 5 -8 24 1 185 306 233 443 6 16 9 16 34 3 16 -9
73 -51 128 -94 111 -87 112 -88 114 -212 1 -56 6 -83 21 -108 l20 -32 385 0
385 0 1 48 1 47 16 -47 c14 -42 19 -48 44 -48 34 0 35 6 4 39 -13 15 -30 49
-39 76 -23 74 -50 261 -43 293 5 20 4 23 -4 12 -8 -12 -10 -9 -10 15 0 16 -16
94 -35 173 -20 78 -33 146 -30 152 3 5 1 11 -5 15 -5 3 -10 14 -10 23 0 13 2
13 14 -4 8 -10 13 -30 10 -44 -4 -18 -3 -21 4 -12 7 11 12 6 20 -17 6 -17 7
-31 2 -31 -5 0 -11 8 -13 17 -4 14 -5 12 -6 -4 -1 -17 5 -23 19 -23 11 0 20
-6 20 -14 0 -8 3 -22 7 -32 5 -13 3 -15 -7 -9 -8 5 -11 4 -6 -3 4 -6 13 -9 21
-5 11 4 13 1 8 -13 -5 -13 -3 -15 8 -9 11 7 11 5 -1 -10 -12 -15 -12 -17 -1
-10 11 6 13 3 9 -13 -4 -12 -1 -25 4 -29 7 -4 8 -1 3 8 -5 8 -4 11 1 6 5 -5 9
-12 10 -15 0 -4 4 -15 8 -25 5 -9 4 -23 -2 -30 -14 -16 -13 -29 3 -47 8 -9 21
-41 29 -73 8 -31 17 -61 20 -65 2 -4 7 -29 10 -55 6 -47 30 -117 41 -117 3 0
3 17 0 37 -6 42 -10 48 41 -62 48 -101 26 -95 322 -95 l261 0 -41 67 c-48 79
-98 174 -98 186 0 4 4 6 9 3 5 -4 4 5 -2 18 -7 13 -15 22 -19 20 -5 -3 -8 4
-8 14 0 11 -6 22 -14 25 -7 3 -31 47 -52 99 -44 105 -53 97 -35 -35 6 -44 11
-105 10 -136 l-1 -56 -15 50 c-9 28 -21 64 -28 80 -8 17 -30 73 -50 125 -51
133 -83 204 -207 454 l-108 219 39 42 c22 24 49 62 61 85 12 24 25 39 30 34 5
-5 32 -41 62 -80 29 -40 99 -133 155 -207 230 -303 372 -542 408 -686 9 -35
18 -102 21 -150 3 -47 7 -105 10 -128 l5 -43 52 0 52 1 28 82 c44 129 44 128
-1 189 -43 58 -95 156 -106 202 -9 36 -147 178 -178 183 -12 2 -22 4 -23 6
-35 50 -54 82 -50 85 7 8 155 -77 211 -120 64 -51 78 -70 175 -250 40 -76 77
-138 81 -138 12 0 -21 68 -122 245 -63 112 -136 175 -287 251 -97 48 -99 50
-168 145 -152 209 -338 449 -344 444 -4 -2 -3 17 2 44 12 57 6 81 -34 145
l-32 50 -19 -38 c-11 -21 -22 -35 -25 -32 -10 10 -9 96 1 99 5 2 5 14 1 27
l-9 25 -6 -25 c-6 -24 -8 -22 -50 34 -25 32 -49 67 -55 77 -5 11 -20 19 -32
19 -12 0 -25 5 -28 10 -10 17 -23 186 -40 530 -24 472 -48 663 -97 767 -25 53
-36 51 -13 -3 24 -56 34 -91 45 -159 5 -33 14 -87 20 -120 5 -33 14 -148 20
-255 5 -107 15 -274 21 -370 6 -96 10 -188 8 -205 -6 -46 -39 205 -45 340 -17
393 -53 618 -113 704 -10 14 -35 62 -56 106 -21 44 -50 96 -65 115 -33 43 -53
80 -47 87 8 7 48 -16 79 -45 15 -14 30 -24 32 -21 2 2 -3 22 -11 44 -11 28
-18 98 -23 232 -4 105 -13 231 -19 280 -21 159 -22 168 -27 193 l-5 25 16 -25
c9 -14 14 -18 11 -9 -20 69 -27 110 -35 224 -6 72 -12 141 -15 153 -5 23 -5
23 20 7 14 -9 28 -14 31 -12 2 3 -7 28 -21 56 -32 62 -32 65 -1 45 31 -20 39
-15 26 19 l-10 27 41 -30 c22 -17 45 -30 49 -30 5 0 -9 25 -31 57 -42 59 -52
85 -23 62 15 -13 16 -11 10 19 -4 17 -4 32 -2 32 3 0 27 -11 53 -25 26 -13 62
-27 80 -30 l33 -6 -24 33 c-36 50 -72 112 -60 105 8 -5 10 7 8 40 -2 40 -1 45
9 28 16 -27 68 -77 74 -70 3 3 -5 16 -18 30 -13 14 -19 25 -13 25 7 0 6 12 -2
38 -14 41 -25 152 -15 152 9 0 -33 202 -58 285 -48 154 -83 282 -86 318 0 9
-19 38 -42 65 -22 26 -66 82 -97 124 -34 46 -72 86 -97 100 -30 17 -40 29 -40
48 0 56 -103 166 -177 191 -18 6 -33 15 -33 19 0 28 -73 85 -186 144 -106 56
-131 66 -172 65 l-47 -2 45 -6z m258 -121 c51 -36 72 -76 72 -132 l0 -43 -21
25 c-11 14 -31 45 -44 70 -13 25 -34 60 -46 78 -26 40 -14 41 39 2z m-668 -49
c-8 -5 -26 -11 -40 -15 -21 -5 -20 -3 5 9 32 15 60 20 35 6z m85 -32 c-49 -5
-110 -13 -134 -19 -58 -14 -63 -6 -9 13 28 10 77 15 138 15 l95 -1 -90 -8z
m722 -91 c-3 -8 -6 -5 -6 6 -1 11 2 17 5 13 3 -3 4 -12 1 -19z m139 -85 c15
-34 11 -58 -7 -48 -5 4 -9 17 -9 31 0 14 -5 35 -11 46 -8 16 -8 19 1 13 7 -4
18 -23 26 -42z m124 -183 c6 -11 7 -20 3 -20 -5 0 -14 9 -21 20 -7 11 -8 20
-2 20 5 0 14 -9 20 -20z m-1351 -144 c-2 -3 -27 -14 -54 -25 l-50 -21 28 25
c15 14 40 25 54 25 15 0 24 -2 22 -4z m220 -20 c9 -11 4 -15 -26 -21 -21 -3
-71 -18 -111 -31 -65 -23 -106 -44 -219 -110 -39 -23 -50 -14 -33 26 11 26 17
30 37 25 19 -4 23 -2 21 12 -9 50 295 142 331 99z m-64 -130 c-15 -25 -30 -48
-34 -50 -4 -3 -34 3 -66 12 l-59 18 90 36 c49 19 91 34 92 33 2 -2 -8 -24 -23
-49z m472 -12 c-3 -3 -12 -4 -19 -1 -8 3 -5 6 6 6 11 1 17 -2 13 -5z m243 -9
c0 -2 -10 -9 -22 -15 -22 -11 -22 -10 -4 4 21 17 26 19 26 11z m-144 -30 c-11
-8 -27 -15 -35 -15 -10 1 -7 6 9 15 33 19 50 18 26 0z m-628 -34 c11 -6 1 -28
-43 -97 -32 -49 -58 -90 -59 -91 -2 -2 -101 45 -116 55 -3 2 3 9 12 16 10 7
14 17 10 21 -4 5 -2 6 3 2 6 -3 37 19 70 48 59 53 93 66 123 46z m-227 -67
c-23 -26 -41 -51 -41 -55 0 -5 -5 -9 -12 -9 -6 0 -20 -8 -31 -17 -20 -18 -20
-18 -1 15 10 18 29 45 42 60 l24 27 -22 -33 c-35 -52 -17 -47 26 8 21 27 43
49 47 50 5 0 -10 -21 -32 -46z m252 15 c-10 -17 -24 -36 -32 -42 -17 -14 -11
-1 21 46 26 37 33 34 11 -4z m687 -20 c0 -18 -2 -19 -15 -9 -15 12 -12 30 6
30 5 0 9 -10 9 -21z m-1199 -20 c-5 -13 -10 -19 -10 -12 -1 15 10 45 15 40 3
-2 0 -15 -5 -28z m699 4 c0 -5 -19 -18 -43 -30 l-42 -23 35 30 c35 30 50 36
50 23z m-550 -53 c-6 -11 -13 -20 -16 -20 -2 0 0 9 6 20 6 11 13 20 16 20 2 0
0 -9 -6 -20z m545 -21 c-22 -10 -51 -18 -65 -18 -17 1 -7 7 30 19 71 24 86 24
35 -1z m126 11 c22 0 5 -18 -36 -38 -46 -22 -85 -27 -119 -13 -15 6 -3 13 50
33 38 15 75 25 82 22 8 -2 18 -4 23 -4z m-271 -4 c0 -2 -8 -10 -17 -17 -16
-13 -17 -12 -4 4 13 16 21 21 21 13z m-381 -95 l-19 -46 32 37 c31 35 34 36
58 23 14 -8 34 -14 44 -15 23 0 56 -28 56 -47 0 -12 -4 -11 -22 1 -30 21 -44
20 -27 -1 11 -15 11 -16 -1 -5 -20 18 -91 15 -122 -6 -14 -9 -36 -29 -47 -44
-19 -24 -19 -26 -3 -31 9 -2 24 -8 32 -11 12 -5 15 1 15 25 0 21 7 36 22 46
20 13 21 13 16 -6 -4 -17 -2 -20 11 -15 9 3 16 1 16 -5 0 -6 -9 -11 -20 -11
-22 0 -23 -3 -14 -37 4 -16 19 -26 48 -35 l41 -11 -32 -10 c-18 -5 -33 -14
-33 -19 0 -6 14 -6 33 -2 17 4 46 8 62 9 41 4 75 15 75 26 0 5 7 9 16 9 9 0
12 -5 8 -12 -4 -7 4 -3 17 8 13 12 34 27 47 33 21 11 47 56 44 74 -1 4 2 7 7
7 5 0 11 -14 15 -32 9 -43 14 -32 8 20 -3 34 -7 40 -17 32 -10 -9 -16 -5 -27
17 -7 15 -23 32 -36 39 -21 10 -21 12 -5 25 14 11 39 14 103 11 160 -7 255 -7
295 2 39 8 42 6 117 -58 42 -36 83 -76 90 -89 7 -14 21 -38 30 -54 9 -17 19
-41 22 -54 2 -13 7 -31 11 -40 3 -10 2 -19 -2 -22 -5 -3 -22 21 -37 54 -15 32
-33 59 -40 59 -7 0 -19 11 -26 25 -25 46 -75 68 -188 82 -69 8 -111 9 -123 3
-10 -6 -38 -10 -63 -10 -65 0 -74 -6 -82 -57 -4 -30 -9 -41 -15 -32 -7 11 -9
11 -9 1 0 -7 7 -24 16 -37 9 -14 13 -33 9 -45 -4 -12 -2 -20 5 -20 6 0 29 -15
51 -32 37 -30 42 -31 50 -15 14 24 32 22 24 -3 -4 -13 -2 -20 7 -20 7 0 54
-16 103 -35 66 -25 82 -34 60 -34 -16 0 -47 3 -68 8 -27 6 -37 6 -34 -2 7 -23
55 -48 115 -59 55 -10 67 -10 92 5 66 39 79 -15 25 -98 -41 -61 -86 -102 -167
-152 -34 -20 -58 -41 -58 -51 0 -49 -62 -81 -90 -47 -7 8 -10 15 -6 15 11 0
-31 99 -64 150 -18 28 -45 58 -61 67 -18 11 -37 37 -51 70 -21 51 -38 68 -38
40 0 -8 -13 -32 -28 -53 -51 -70 -47 -94 15 -94 56 0 37 -16 -35 -30 -95 -18
-184 -10 -224 20 -17 13 -47 24 -67 25 -20 2 -30 1 -23 -2 6 -3 12 -12 12 -21
0 -9 9 -30 20 -47 11 -16 20 -40 20 -51 0 -12 9 -33 20 -47 14 -18 19 -34 14
-51 -3 -14 -1 -39 4 -56 13 -35 3 -39 -23 -9 -16 16 -26 19 -60 13 -22 -3 -50
-15 -61 -26 -19 -17 -25 -18 -43 -6 -18 11 -23 10 -38 -12 -22 -30 -34 -70
-22 -70 5 0 9 4 9 8 0 5 12 14 26 20 40 19 68 -6 71 -63 2 -43 23 -81 37 -68
3 4 6 0 6 -9 0 -13 36 -52 50 -54 25 -4 49 -17 45 -24 -3 -5 -17 -5 -32 1 -32
12 -41 4 -24 -23 12 -20 10 -19 -32 5 -24 14 -47 24 -50 21 -13 -13 50 -108
102 -151 58 -49 90 -82 92 -92 0 -3 2 -14 4 -24 5 -28 -21 -47 -57 -40 -19 4
-29 2 -25 -4 3 -5 -8 -18 -25 -28 -17 -10 -28 -13 -24 -6 4 6 1 11 -8 11 -9 0
-16 -4 -16 -10 0 -5 -5 -10 -11 -10 -5 0 -7 4 -4 10 3 5 0 7 -7 5 -8 -3 -43 9
-78 28 -60 30 -68 39 -97 98 -60 122 -79 362 -44 559 10 55 27 169 55 357 13
86 22 115 61 186 25 47 52 109 60 138 7 30 23 77 35 104 18 44 20 46 15 15
-16 -91 -17 -110 -6 -110 6 0 11 12 11 26 0 15 12 52 26 84 22 49 28 56 49 52
l23 -4 -19 -47z m151 -141 c0 -22 -31 -39 -55 -29 -16 6 -17 8 -3 8 17 1 34
35 30 61 -2 11 2 9 13 -4 8 -11 15 -27 15 -36z m657 -46 c47 -51 51 -65 28
-84 -13 -11 -22 -8 -53 22 -37 36 -37 36 -127 35 -71 -1 -90 2 -93 13 -5 27
67 58 137 59 64 1 65 1 108 -45z m-180 -74 c-4 -17 -2 -20 13 -15 10 3 21 1
25 -5 4 -6 -4 -10 -18 -10 -31 0 -38 -9 -26 -32 10 -18 9 -18 -11 -8 -30 16
-35 36 -16 65 20 30 40 33 33 5z m127 -26 c18 -47 2 -74 -46 -74 -19 0 -19 0
1 26 12 15 21 35 21 45 0 23 16 25 24 3z m334 -25 c-3 -20 -5 -19 -9 9 -3 20
-2 29 4 23 5 -5 7 -19 5 -32z m24 -79 c15 -22 16 -43 9 -185 -5 -109 -13 -172
-24 -197 -27 -64 -103 -174 -140 -204 -20 -15 -33 -32 -31 -36 12 -19 41 -4
86 45 l49 52 -17 -47 c-10 -26 -21 -45 -25 -42 -4 2 -5 -4 -2 -14 2 -10 -6
-29 -20 -44 -20 -21 -22 -29 -13 -37 10 -8 21 0 45 30 18 22 35 38 38 36 10
-11 -76 -145 -103 -160 -8 -5 -12 -13 -8 -18 3 -5 -11 -31 -32 -56 -21 -25
-40 -41 -42 -35 -2 7 -8 12 -13 12 -6 0 -7 -4 -4 -10 3 -5 3 -10 -2 -10 -4 0
-18 -3 -30 -6 -19 -5 -23 -2 -23 16 0 17 4 21 17 16 10 -4 14 -4 10 0 -4 4 2
18 14 30 13 14 19 30 15 39 -3 9 -2 14 2 11 5 -3 16 18 25 46 16 49 16 50 -4
32 -10 -9 -19 -28 -19 -41 0 -14 -4 -21 -10 -18 -5 3 -10 0 -10 -8 0 -8 -7
-20 -16 -27 -8 -8 -14 -9 -13 -4 5 31 -4 31 -28 2 -16 -18 -31 -34 -35 -36 -5
-2 -8 -9 -8 -16 0 -7 -13 -25 -30 -41 -16 -15 -27 -32 -23 -38 3 -5 25 12 49
39 24 26 44 46 45 44 5 -29 4 -50 -3 -50 -4 0 -16 -7 -25 -15 -10 -8 -21 -14
-24 -13 -4 2 -15 -4 -25 -13 -11 -8 -32 -21 -48 -28 -29 -12 -29 -12 -14 11 8
13 45 75 84 138 38 63 81 127 95 142 14 15 26 33 26 40 0 7 4 22 9 32 6 16 4
18 -9 13 -38 -15 -3 63 53 118 22 22 40 43 40 48 0 4 17 34 38 66 66 99 92
192 93 339 0 59 3 100 7 92 4 -8 15 -26 24 -40z m769 -107 l34 -36 -42 33
c-24 18 -43 35 -43 37 0 12 21 -2 51 -34z m-263 -150 c48 -69 63 -114 72 -220
5 -59 8 -109 5 -111 -6 -6 -8 1 -41 138 -16 66 -42 142 -61 178 -28 52 -30 61
-14 52 11 -5 28 -22 39 -37z m-1485 -208 c3 -17 -1 -26 -12 -29 -9 -2 -26 -7
-38 -11 -30 -8 -31 20 -2 51 25 27 45 22 52 -11z m272 9 c12 -13 19 -14 30 -4
13 10 18 6 30 -24 9 -20 13 -42 9 -48 -4 -6 -3 -8 4 -4 6 3 14 1 17 -5 4 -6
-2 -13 -14 -16 -11 -3 -19 -9 -16 -13 8 -13 -24 -5 -38 10 -8 9 -8 11 0 6 6
-3 14 -3 17 2 10 16 -12 34 -43 36 -18 1 -35 6 -39 12 -4 6 -14 10 -23 9 -9
-2 -23 2 -30 7 -11 8 -10 9 4 4 12 -4 21 2 29 19 13 29 39 32 63 9z m-148 -45
c10 -9 25 -25 34 -37 10 -11 25 -24 34 -30 10 -5 15 -14 11 -20 -4 -8 -14 -4
-27 9 -12 12 -38 28 -58 38 -35 15 -71 43 -71 54 0 11 62 0 77 -14z m1170 -61
c-38 -85 -119 -158 -174 -158 -36 0 -47 26 -15 37 9 3 36 26 59 52 24 25 40
38 37 29 -18 -53 52 13 87 82 32 63 38 26 6 -42z m-1582 52 c3 -5 1 -10 -4
-10 -6 0 -11 5 -11 10 0 6 2 10 4 10 3 0 8 -4 11 -10z m150 -58 c-3 -3 -11 0
-18 7 -9 10 -8 11 6 5 10 -3 15 -9 12 -12z m112 -28 c-3 -3 -12 -4 -19 -1 -8
3 -5 6 6 6 11 1 17 -2 13 -5z m1389 -108 c-4 -31 -1 -110 9 -189 15 -129 14
-139 -4 -219 -11 -45 -38 -141 -61 -213 -37 -121 -42 -147 -60 -365 -11 -129
-20 -236 -20 -237 0 -2 -13 -3 -28 -3 -16 0 -37 9 -47 20 -32 35 -76 42 -187
31 -57 -5 -106 -7 -109 -3 -3 4 -18 40 -34 81 -36 96 -106 198 -200 297 l-77
79 12 35 c15 41 148 277 161 286 10 6 10 6 14 -51 1 -22 -2 -46 -7 -52 -7 -9
-7 -13 2 -13 8 0 33 21 57 46 38 39 42 42 29 15 -9 -16 -33 -42 -53 -57 -58
-43 -61 -47 -20 -30 50 21 92 49 151 105 56 53 48 28 -14 -42 -50 -56 -123
-102 -148 -92 -13 5 -14 3 -5 -6 16 -16 52 -5 114 37 l54 37 -30 -32 c-16 -18
-43 -39 -60 -46 -27 -12 -28 -13 -7 -14 55 -2 176 86 214 155 14 27 35 81 47
119 11 39 28 79 37 90 16 20 16 20 9 0 -19 -55 -14 -55 28 0 25 33 59 76 76
95 l30 35 2 -45 1 -45 15 55 c17 64 33 87 33 48 0 -15 5 -30 10 -33 6 -4 10
10 10 34 0 22 6 46 13 53 8 7 20 30 26 51 18 53 24 46 17 -17z m-308 -39 c-5
-32 -23 -30 -24 2 -1 21 3 28 13 24 8 -3 13 -15 11 -26z m-2834 -13 c33 -9 63
-17 65 -19 2 -2 -32 -51 -74 -110 -47 -65 -75 -111 -71 -121 3 -8 48 -74 99
-147 52 -73 107 -151 123 -173 182 -260 436 -614 448 -624 21 -16 46 -6 46 19
0 11 -89 145 -198 298 -275 387 -261 364 -256 398 3 27 3 27 -4 5 -7 -23 -15
-14 -100 104 l-92 129 23 31 c121 161 124 165 135 154 7 -7 12 -21 12 -33 0
-11 7 -52 15 -90 8 -39 15 -95 16 -125 1 -83 17 -32 18 57 1 48 -5 89 -18 122
l-18 49 21 6 c43 12 73 5 111 -23 37 -27 41 -28 130 -23 106 5 155 -7 245 -62
30 -18 76 -37 103 -40 26 -4 47 -10 47 -13 0 -3 -30 -37 -66 -76 -89 -94 -199
-265 -182 -282 2 -3 37 -8 77 -11 46 -5 79 -13 89 -23 8 -9 20 -16 26 -16 6 0
11 -11 11 -25 0 -18 6 -26 22 -28 12 -2 27 -10 33 -17 11 -13 16 -12 42 3 29
17 30 16 48 -5 12 -16 29 -23 52 -23 69 0 73 -4 74 -78 1 -72 14 -105 80 -208
37 -57 61 -78 107 -88 l28 -7 -17 33 c-9 18 -27 47 -40 64 -19 26 -23 45 -25
115 -1 46 -5 96 -10 112 -7 24 -5 27 16 27 12 0 33 -9 46 -21 13 -11 18 -18
12 -14 -23 11 -14 -21 12 -45 27 -25 33 -13 13 21 -12 18 -9 24 20 50 41 37
78 38 94 3 9 -20 8 -57 -5 -172 -27 -229 -22 -385 14 -441 8 -13 9 -13 5 4
-16 67 -17 99 -11 207 4 65 9 117 11 115 3 -2 5 -52 5 -111 0 -146 32 -265 80
-294 26 -17 37 -8 18 14 -20 24 -18 276 2 323 l15 34 25 -48 c31 -60 49 -69
49 -23 0 45 15 60 46 46 13 -6 24 -14 24 -18 0 -3 7 -15 15 -26 14 -18 14 -17
10 11 -2 17 -6 53 -9 80 -4 49 -4 49 9 19 19 -42 55 -238 56 -304 1 -30 -4
-68 -10 -83 -13 -34 -14 -67 -2 -67 4 0 14 27 21 60 8 37 17 59 24 56 6 -3 35
-13 64 -22 56 -19 64 -29 31 -39 -11 -4 -18 -9 -16 -12 10 -10 112 51 160 95
32 30 44 38 33 21 -42 -65 -207 -159 -312 -178 -88 -16 -190 -15 -211 1 -7 5
-16 7 -21 4 -6 -3 -16 1 -23 10 -7 8 -29 24 -48 34 -29 15 -39 28 -53 71 l-18
54 6 -100 c3 -55 7 -110 8 -123 1 -22 -3 -23 -98 -28 -55 -3 -128 -9 -164 -13
-74 -9 -156 2 -332 44 -111 27 -407 136 -520 193 -54 27 -55 28 -73 96 -16 62
-16 71 -2 78 21 12 19 34 -5 68 -12 17 -24 58 -30 102 -19 144 -27 188 -32
193 -3 3 3 40 13 83 11 42 19 91 19 107 -1 29 -1 29 -16 10 -8 -11 -24 -51
-35 -90 -31 -106 -61 -185 -70 -185 -4 0 -31 33 -59 73 -49 69 -51 74 -45 120
18 128 -2 175 -33 77 l-19 -63 -49 70 c-54 77 -84 133 -110 206 -11 32 -22 47
-35 47 -21 0 -29 -19 -18 -41 19 -37 23 -85 25 -299 l3 -225 -19 86 c-10 48
-28 104 -39 125 -12 21 -21 46 -21 55 0 9 -9 27 -20 40 l-21 24 6 -55 c7 -61
-12 -169 -42 -238 l-18 -42 -1 137 c0 104 -5 149 -17 182 -17 43 -75 130 -88
131 -4 0 -3 -17 2 -37 10 -39 52 -284 63 -360 3 -24 2 -43 -2 -43 -19 1 -31
21 -56 92 -26 75 -26 80 -26 352 0 152 3 276 6 276 3 0 14 -5 25 -11 19 -10
19 -9 9 10 -6 12 -14 21 -19 21 -4 0 -8 6 -9 13 -1 6 -4 40 -8 75 l-7 62 51 0
c29 0 94 11 145 24 144 38 206 42 237 18 22 -18 28 -18 45 -6 23 17 39 18 29
2 -4 -7 -3 -8 5 -4 6 4 9 11 6 16 -4 7 6 15 24 19 2 1 31 -6 65 -15z m1293
-166 c-1 -85 1 -100 34 -178 19 -47 52 -128 73 -181 37 -93 37 -97 22 -127 -9
-17 -15 -39 -13 -49 1 -10 -2 -18 -8 -18 -5 0 -9 11 -7 25 5 48 3 81 -8 98 -8
13 -9 9 -4 -19 4 -26 1 -39 -11 -49 -21 -18 -33 -5 -55 61 -15 44 -16 56 -5
73 7 12 15 42 18 67 6 42 4 47 -21 61 -31 18 -15 21 -262 -52 -58 -17 -161
-44 -230 -60 -69 -16 -145 -36 -169 -44 -24 -9 -45 -16 -48 -16 -7 0 29 65 73
130 24 36 76 97 116 136 64 62 84 75 158 102 47 17 101 34 120 37 19 3 76 26
125 50 50 24 93 44 96 44 4 1 6 -41 6 -91z m-2103 11 c-18 -20 -18 -20 8 -15
14 2 50 -1 79 -8 l54 -11 2 -235 c2 -205 1 -231 -11 -205 -14 31 -52 75 -64
75 -4 0 -14 -5 -22 -11 -12 -8 -11 -9 5 -5 15 4 25 -1 37 -22 26 -44 50 -149
55 -238 l4 -81 -58 -5 c-40 -3 -86 -17 -148 -45 -133 -60 -138 -61 -173 -12
l-30 40 25 77 c14 42 35 85 47 94 41 34 145 60 216 53 61 -5 64 -5 45 10 -16
13 -38 16 -105 13 -71 -2 -95 -8 -145 -33 -54 -27 -63 -36 -90 -92 -16 -34
-33 -61 -36 -60 -12 4 -299 369 -299 381 0 2 17 6 38 10 20 3 47 9 59 12 19 5
21 3 18 -23 -4 -26 0 -30 55 -56 36 -17 66 -39 76 -56 17 -30 28 -33 54 -16 8
6 23 14 34 20 21 11 19 31 -4 27 -11 -2 -10 1 3 8 10 7 14 16 10 23 -8 13 -9
21 -19 110 -6 51 -9 58 -25 54 -27 -7 -24 -2 22 46 35 36 61 72 104 141 7 11
37 20 90 28 44 6 84 15 90 20 18 16 18 8 -1 -13z m3376 -61 c-27 -40 -70 -101
-95 -136 -25 -34 -45 -64 -45 -66 0 -2 -18 -36 -41 -77 -86 -156 -179 -416
-179 -499 0 -34 -4 -41 -44 -64 -40 -23 -44 -29 -50 -78 -9 -79 -25 -128 -41
-128 -22 0 -18 35 10 115 43 123 31 137 -57 64 -35 -28 -78 -67 -96 -86 -18
-18 -37 -31 -42 -28 -5 3 -17 -3 -27 -14 -21 -25 -33 -18 -33 18 0 20 10 36
33 55 48 40 147 158 141 167 -3 5 1 9 8 9 10 0 10 2 0 8 -14 9 39 118 114 234
24 38 44 71 44 73 0 3 21 35 47 72 25 38 59 86 74 109 37 53 55 69 64 54 7
-12 30 11 80 80 16 23 49 56 72 73 22 18 54 51 70 74 15 24 31 43 36 43 4 0
-15 -33 -43 -72z m-3715 -57 c17 -7 15 -11 -25 -40 -24 -17 -55 -34 -69 -37
-79 -18 -109 -28 -139 -46 -24 -15 -42 -18 -67 -14 -52 10 -193 -48 -202 -82
-8 -34 6 -53 52 -69 47 -16 78 -10 50 11 -16 12 -15 14 14 35 18 13 34 22 35
20 21 -24 225 -284 246 -314 26 -38 27 -42 13 -69 -10 -20 -11 -26 -2 -21 8 6
10 4 4 -5 -4 -7 -15 -47 -25 -89 -9 -42 -19 -83 -21 -91 -3 -12 5 -15 36 -14
21 1 41 7 43 13 2 6 9 11 15 11 7 -1 -19 -30 -58 -65 -95 -88 -244 -162 -313
-156 -14 1 -92 72 -92 84 0 4 9 3 19 -3 30 -15 38 -13 68 20 14 17 35 30 46
30 12 0 36 5 54 12 32 11 34 10 61 -21 53 -63 96 -20 46 46 -25 32 -26 37 -11
48 15 10 15 23 6 101 -25 223 -43 294 -73 294 -13 0 -13 -5 -1 -41 34 -97 16
-124 -77 -115 -52 6 -67 12 -85 34 -29 35 -28 38 5 47 15 4 21 10 14 12 -9 4
-10 8 -2 18 8 9 8 15 0 20 -5 3 -14 -4 -19 -17 -6 -15 -10 -17 -10 -7 -1 12
-8 15 -26 11 -35 -6 -31 7 6 20 35 12 23 28 -21 28 -14 0 -38 11 -53 24 -26
22 -27 28 -18 58 14 50 33 101 43 121 5 11 7 21 5 24 -6 6 -39 -41 -66 -95
-12 -24 -25 -42 -28 -39 -7 8 52 109 74 129 40 34 163 99 214 113 30 8 101 28
159 44 109 31 142 35 175 22z m4441 -288 c-7 -7 -26 7 -26 19 0 6 6 6 15 -2 9
-7 13 -15 11 -17z m-3467 -182 c28 -42 29 -51 20 -84 -5 -21 -18 -43 -29 -49
-10 -6 -16 -17 -13 -23 2 -7 -6 -30 -19 -51 l-23 -39 -3 85 c-2 47 0 118 3
158 8 83 13 83 64 3z m1701 -26 c25 -13 41 -24 35 -25 -16 0 -95 34 -95 43 0
11 12 8 60 -18z m-3423 -83 c-19 -26 -49 -75 -66 -109 -32 -64 -33 -74 -15
-190 6 -42 174 -266 188 -252 4 3 13 43 21 87 13 77 31 129 41 119 2 -2 0 -84
-6 -182 -5 -97 -7 -181 -5 -186 3 -5 24 -14 46 -20 32 -10 41 -18 46 -41 8
-41 25 -50 100 -51 l68 -2 3 59 c2 41 10 70 28 97 32 51 49 51 38 2 -4 -21 -8
-69 -9 -108 l0 -70 -27 3 c-16 1 -28 -2 -28 -7 0 -14 81 -81 97 -81 8 0 11 -4
8 -10 -3 -5 -23 -10 -44 -10 -27 0 -44 7 -61 25 -22 23 -30 25 -117 25 l-93 0
-29 40 c-15 21 -34 52 -40 69 -10 23 -32 38 -115 76 -89 40 -106 52 -133 93
-18 26 -42 73 -54 104 -21 56 -21 59 -5 122 9 36 16 96 16 133 0 94 10 120 78
215 33 46 68 99 78 118 l19 35 3 -28 c2 -19 -7 -42 -31 -75z m217 46 c9 -12
14 -23 12 -26 -2 -2 -32 0 -65 4 -66 7 -68 12 -18 31 46 17 54 16 71 -9z
m3155 -125 c1 -34 -4 -65 -9 -68 -6 -4 -7 -11 -4 -17 4 -7 9 -7 13 0 12 20 10
-96 -3 -207 -8 -62 -17 -115 -19 -118 -11 -11 -27 105 -27 198 0 89 7 166 26
279 6 30 8 32 14 15 5 -11 9 -48 9 -82z m151 35 c0 -17 -10 -6 -25 25 l-16 32
20 -25 c11 -14 21 -28 21 -32z m888 -11 c30 -43 76 -137 92 -189 l8 -26 -33
22 c-18 13 -62 28 -97 35 -83 16 -128 38 -121 60 11 28 97 141 109 141 6 0 25
-19 42 -43z m-2549 -32 c36 -50 36 -72 1 -114 -16 -19 -23 -22 -33 -12 -9 9
-9 14 3 21 11 7 12 10 2 10 -9 0 -11 7 -7 19 12 39 14 61 4 61 -5 0 -9 14 -9
30 0 17 1 30 3 30 2 0 18 -20 36 -45z m1458 -2 c-3 -10 -5 -4 -5 12 0 17 2 24
5 18 2 -7 2 -21 0 -30z m-2862 -3 c3 -5 1 -19 -6 -31 l-11 -22 -19 24 c-10 13
-19 27 -19 32 0 11 48 9 55 -3z m-105 -52 c0 -5 -10 -9 -22 -9 -80 -6 -108 -5
-108 1 0 4 -12 6 -27 5 -31 -2 -56 12 -47 26 10 16 26 9 20 -8 -6 -16 -6 -16
12 0 10 10 36 17 58 18 21 0 48 4 59 9 15 6 24 2 37 -14 10 -11 18 -24 18 -28z
m880 -63 c0 -63 -2 -115 -5 -115 -6 0 -67 29 -100 47 -35 20 -109 51 -136 57
-15 3 -29 15 -32 26 -3 11 -1 18 4 14 5 -3 9 -1 9 3 0 7 104 60 150 76 8 3 36
6 63 6 l47 1 0 -115z m170 85 c19 -5 69 -29 110 -52 l75 -43 5 -65 c5 -61 6
-65 30 -65 22 0 26 5 30 47 l5 47 225 -135 c280 -169 263 -160 482 -245 226
-88 208 -83 412 -125 161 -33 172 -34 250 -23 170 25 408 9 533 -35 21 -7 72
-38 114 -68 84 -60 206 -123 259 -133 36 -7 258 -149 266 -170 8 -19 -14 -63
-36 -75 -30 -16 -34 -7 -16 29 24 46 19 48 -17 6 -26 -30 -37 -36 -55 -30 -24
7 -46 49 -36 68 3 7 -1 3 -10 -7 -15 -18 -16 -18 -42 -2 -19 13 -25 24 -21 42
5 28 6 27 -27 14 -23 -8 -26 -7 -26 10 0 11 -5 20 -11 20 -6 0 -9 6 -6 14 7
17 -21 30 -37 18 -6 -5 -28 -12 -50 -15 -31 -5 -45 -1 -70 17 -63 48 -147 88
-161 76 -10 -8 -14 -7 -18 2 -4 9 -8 10 -14 3 -4 -6 -46 -12 -92 -13 -47 -1
-86 -4 -88 -6 -2 -2 7 -35 20 -72 20 -58 25 -100 18 -136 -2 -11 -61 -27 -78
-21 -10 4 -14 2 -9 -5 14 -23 -14 -22 -34 1 -22 26 -39 27 -132 12 -20 -4 -52
-2 -70 4 -18 5 -66 19 -107 30 -70 20 -111 43 -111 63 0 5 -10 22 -22 39 -22
29 -23 29 -28 10 l-5 -21 -32 22 c-17 13 -46 47 -64 76 -18 29 -39 57 -48 62
-24 12 -252 75 -346 95 -113 24 -112 23 -118 46 -4 14 -10 18 -19 13 -7 -5
-21 -7 -30 -6 -10 2 -18 -2 -18 -7 0 -6 -7 -11 -15 -11 -36 0 -288 116 -281
129 3 4 -5 7 -17 7 -12 -1 -22 5 -22 12 0 6 -4 12 -8 11 -5 0 -14 7 -21 16 -7
9 -24 18 -38 18 -14 1 -24 5 -22 9 7 10 -42 21 -56 13 -6 -3 -9 -3 -8 2 2 4
-1 10 -7 11 -13 5 -99 52 -142 79 -18 11 -30 23 -26 27 4 4 0 4 -10 0 -12 -4
-17 -1 -17 11 0 16 -52 67 -56 55 -1 -3 -11 3 -22 13 -11 10 -29 19 -40 20
-11 0 -18 5 -16 9 3 5 -5 12 -17 16 -15 6 -18 11 -11 16 8 5 12 46 12 128 l0
120 38 -6 c20 -4 53 -11 72 -16z m1907 -47 c-3 -10 -5 -2 -5 17 0 19 2 27 5
18 2 -10 2 -26 0 -35z m-2550 -18 c0 -8 -4 -12 -9 -9 -5 3 -6 10 -3 15 9 13
12 11 12 -6z m-22 -25 c3 -5 2 -10 -4 -10 -5 0 -13 5 -16 10 -3 6 -2 10 4 10
5 0 13 -4 16 -10z m1226 -67 c-1 -27 -6 -65 -9 -85 l-7 -37 -32 20 -33 21 24
46 c13 26 26 60 30 76 11 45 30 16 27 -41z m-1516 17 c9 -14 -9 -18 -93 -23
-75 -4 -83 4 -22 21 47 14 107 14 115 2z m3640 -64 c10 -79 13 -85 43 -83 24
2 27 -2 30 -35 2 -21 7 -38 13 -38 11 0 10 -64 -1 -100 -8 -25 -8 -25 -10 5
-1 26 -3 27 -10 10 -10 -24 -13 -61 -4 -52 9 9 44 -37 50 -65 13 -56 9 -134
-8 -164 -17 -28 -17 -34 -2 -78 20 -58 90 -135 181 -200 41 -29 85 -71 108
-105 89 -125 204 -221 295 -246 65 -18 110 -39 110 -52 0 -8 -7 -27 -15 -41
-8 -15 -24 -53 -36 -85 -22 -62 -35 -73 -19 -17 18 62 -16 3 -120 -207 -28
-57 -55 -103 -60 -103 -28 0 -64 29 -86 69 -15 27 -52 66 -90 96 -83 64 -121
84 -161 85 -35 0 -233 51 -277 71 -27 13 -26 13 56 53 64 32 84 46 86 64 8 56
-68 66 -229 28 -110 -26 -122 -25 -174 18 -27 23 -28 26 -14 43 29 33 33 48 5
19 l-27 -29 -35 34 c-18 18 -42 50 -53 72 -19 39 -19 39 3 85 12 26 27 56 34
67 12 20 12 20 27 1 8 -11 15 -17 15 -13 0 12 56 -14 83 -39 36 -33 144 -73
218 -81 80 -8 140 15 180 70 50 69 36 104 -66 161 -16 9 -59 36 -94 61 -35 25
-73 45 -85 45 -41 0 -50 14 -31 49 24 47 13 61 -14 18 -12 -20 -30 -37 -38
-37 -18 0 -93 41 -93 51 0 4 20 36 45 72 99 144 180 347 206 514 13 78 14 80
35 71 17 -8 24 -22 29 -62z m695 38 c22 -9 40 -20 40 -24 0 -4 -39 -10 -86
-14 -61 -5 -110 -17 -172 -41 -96 -37 -100 -47 -6 -14 86 30 136 38 254 38
l105 1 145 -147 c130 -132 230 -248 230 -266 0 -4 36 -79 79 -168 44 -88 92
-197 107 -242 31 -94 74 -160 115 -177 35 -15 87 -71 124 -134 23 -39 27 -55
23 -97 -3 -28 -12 -57 -20 -65 -12 -13 -17 -6 -37 55 -26 79 -49 106 -131 156
-31 19 -62 47 -70 62 -8 15 -21 37 -30 47 -13 17 -13 18 0 11 13 -8 13 -7 1 8
-7 9 -10 17 -6 17 5 0 0 10 -11 22 -10 12 -13 18 -6 14 11 -7 11 -4 0 15 -7
13 -17 27 -23 31 -5 4 -7 8 -3 8 8 0 -16 56 -51 117 -13 23 -29 39 -34 36 -6
-3 -7 -1 -3 6 4 6 -2 26 -13 45 -12 18 -21 40 -21 49 0 8 -6 17 -14 20 -8 3
-17 19 -21 36 -3 16 -15 33 -25 36 -10 3 -34 23 -52 43 -18 20 -45 42 -58 48
-46 22 -109 83 -112 111 -2 15 -9 29 -17 31 -9 3 -11 0 -7 -7 6 -8 -1 -10 -21
-5 -15 3 -41 8 -57 11 -39 8 -141 68 -160 95 -17 24 -11 42 11 34 8 -3 11 -1
8 4 -9 15 -3 13 67 -20 34 -16 70 -30 79 -30 10 0 40 -15 67 -34 28 -18 77
-50 109 -69 33 -20 67 -45 78 -57 10 -11 22 -20 26 -20 5 0 -12 19 -37 42 -25
23 -53 56 -61 72 -20 40 -99 119 -140 140 -53 27 -186 22 -286 -11 -49 -16
-106 -27 -140 -27 -50 -1 -62 2 -78 23 -11 13 -18 30 -15 38 7 16 -6 17 -21 2
-9 -9 -20 -5 -43 15 -17 14 -37 26 -43 26 -7 1 31 22 83 47 92 45 154 59 322
72 10 0 36 -6 58 -15z m-1010 -129 c25 -8 77 -18 115 -23 l70 -8 -49 -46 c-72
-68 -88 -74 -144 -59 -91 24 -96 29 -104 99 -4 34 -10 71 -13 82 -6 18 -3 18
37 -5 24 -14 63 -32 88 -40z m519 -31 c12 -28 16 -27 -50 -8 -21 6 -21 6 2 19
33 18 34 18 48 -11z m216 -150 c6 -44 4 -70 -17 -212 -10 -64 -13 -71 -25 -59
-8 8 -26 48 -40 88 -24 71 -24 75 -8 125 15 47 15 55 1 82 -21 41 -5 54 44 35
34 -14 39 -20 45 -59z m201 -125 c42 -68 50 -89 43 -109 -4 -14 -18 -69 -30
-122 l-21 -98 -34 0 c-36 0 -59 17 -123 95 -47 56 -49 71 -26 188 8 43 15 106
15 139 l0 60 63 -35 c55 -31 68 -45 113 -118z m-802 65 c-19 -45 -94 -171
-151 -253 -1 -2 -21 8 -43 23 -31 21 -40 32 -40 55 0 16 -2 36 -5 43 -4 9 5
19 21 27 20 9 24 15 16 23 -9 9 -15 9 -24 0 -18 -18 -28 -14 -28 11 0 19 8 26
43 37 23 8 69 27 102 43 l60 29 -24 -25 c-44 -48 -16 -46 39 3 30 27 56 48 57
46 2 -2 -8 -29 -23 -62z m-450 -58 c45 -45 93 -66 152 -66 26 0 33 -5 36 -25
6 -29 6 -30 -33 -9 -17 8 -63 23 -102 33 -64 16 -74 22 -89 52 -17 34 -23 59
-13 59 2 0 24 -20 49 -44z m174 -13 c3 -9 -12 -13 -52 -13 -51 0 -106 15 -106
29 0 12 153 -4 158 -16z m776 -60 c9 -25 14 -48 11 -51 -4 -4 -65 17 -65 23 0
7 31 75 34 75 2 0 11 -21 20 -47z m-3676 -97 c42 -24 113 -56 157 -71 44 -15
82 -29 85 -32 5 -5 -97 0 -195 10 -207 21 -194 18 -216 49 -24 33 -18 49 8 27
55 -44 127 -62 162 -40 11 7 7 13 -17 25 -27 14 -82 76 -67 76 3 0 41 -20 83
-44z m4071 -76 c77 -335 81 -345 112 -355 10 -3 31 -18 47 -33 16 -15 45 -35
65 -44 25 -12 35 -22 31 -33 -5 -11 -15 -13 -48 -8 -42 7 -119 37 -112 44 2 2
-15 5 -37 6 -57 2 -148 44 -180 83 -25 29 -27 39 -27 115 0 46 -3 90 -6 99 -5
13 2 16 35 16 32 0 41 4 41 18 0 34 45 210 51 199 4 -7 16 -55 28 -107z
m-3991 -47 c30 -5 32 -8 32 -47 0 -22 -3 -51 -6 -64 -7 -23 -8 -23 -48 17 -22
22 -68 56 -101 76 l-60 37 75 -6 c41 -4 90 -9 108 -13z m200 -40 c-3 -25 -7
-28 -40 -27 -30 1 -38 -3 -39 -17 -1 -11 -2 -25 -2 -31 -1 -7 2 -33 6 -57 l8
-43 62 65 c34 36 67 63 74 60 9 -3 7 -10 -6 -24 -9 -10 -41 -67 -71 -125 l-53
-106 -40 84 c-40 84 -57 168 -43 223 6 24 10 25 77 25 l70 0 -3 -27z m-51
-118 c0 -8 -4 -12 -9 -9 -5 3 -6 10 -3 15 9 13 12 11 12 -6z m1196 -79 c68
-20 68 -19 -1 -113 l-47 -64 -11 85 c-6 47 -14 92 -18 102 -4 11 -2 15 6 11 7
-2 39 -12 71 -21z m3417 -49 c0 -5 -4 -5 -10 -2 -5 3 -10 14 -10 23 0 15 2 15
10 2 5 -8 10 -19 10 -23z m-3085 -41 c165 -51 227 -79 317 -144 79 -57 100
-78 180 -184 20 -26 39 -44 43 -40 4 4 5 3 4 -3 -4 -13 38 -93 63 -119 45 -48
57 -96 22 -96 -15 0 -19 -27 -5 -48 8 -13 -34 -171 -48 -182 -4 -3 -8 -21 -9
-40 -3 -52 -33 -170 -43 -170 -5 0 -9 6 -9 13 0 8 -17 32 -38 55 -29 32 -44
40 -62 37 -13 -2 -30 1 -38 8 -8 6 -18 10 -21 8 -3 -2 -13 9 -22 25 -17 30 -8
60 15 47 6 -4 5 1 -3 10 -14 18 -36 13 -24 -6 3 -7 -3 -4 -15 7 -11 10 -24 31
-27 47 -4 16 -10 29 -15 29 -4 0 -17 19 -29 43 l-21 42 3 -42 c2 -24 6 -46 10
-50 4 -3 7 -13 7 -20 0 -35 -31 19 -37 64 -3 26 -8 42 -11 35 -3 -10 -8 -8
-17 5 -10 13 -10 22 -2 31 7 9 7 12 0 10 -6 -2 -11 2 -11 7 0 6 4 9 10 7 5 -1
7 2 3 8 -3 6 -10 8 -15 5 -7 -4 -22 37 -24 67 -1 3 -4 10 -8 14 -5 4 -8 15 -8
24 0 10 -10 30 -22 46 -13 15 -17 25 -10 20 20 -12 13 9 -8 24 -11 8 -20 20
-20 28 0 7 -5 10 -12 6 -6 -4 -8 -3 -4 4 3 6 0 16 -7 24 -7 7 -21 41 -31 76
-11 34 -23 62 -29 62 -5 0 -7 7 -4 15 8 18 -17 67 -29 57 -4 -4 -3 0 4 10 10
12 10 18 1 24 -8 5 -9 3 -4 -6 5 -8 4 -11 -3 -6 -11 7 -28 73 -24 90 2 5 -7
19 -19 32 -12 13 -18 24 -13 24 5 0 59 -15 119 -34z m-1299 -13 c-4 -10 -8
-20 -8 -23 -8 -44 -118 -214 -150 -231 -10 -5 -18 -18 -18 -29 0 -10 -9 -26
-21 -34 -12 -8 -18 -19 -14 -25 3 -7 1 -10 -5 -9 -7 2 -14 -7 -16 -19 -2 -12
-13 -39 -25 -60 -82 -144 -151 -301 -168 -383 -5 -25 -14 -63 -20 -85 -5 -22
-13 -66 -16 -99 -6 -49 -9 -56 -20 -45 -16 17 -5 151 26 319 18 99 22 107 58
140 52 47 88 98 137 194 23 45 47 80 52 79 6 -2 9 4 6 11 -3 8 13 39 35 69 23
29 41 57 41 62 0 4 15 28 34 54 18 25 46 68 61 94 26 46 45 58 31 20z m1048
-86 c7 -56 -4 -94 -23 -82 -8 4 -15 -77 -12 -135 1 -19 -1 -59 -5 -88 -4 -43
-8 -51 -19 -42 -10 9 -13 3 -11 -28 1 -24 -2 -39 -9 -39 -7 0 -11 12 -10 26 1
14 -2 31 -6 36 -11 15 -31 253 -23 268 15 24 108 147 110 144 1 -1 5 -28 8
-60z m1156 22 c3 -3 23 -10 44 -15 34 -8 45 -18 74 -67 18 -32 44 -63 58 -69
30 -14 31 -28 2 -28 -84 2 -159 20 -202 50 -26 17 -44 35 -41 40 3 5 -9 25
-26 44 -32 37 -31 40 21 49 32 6 64 4 70 -4z m-2516 -203 c-19 -78 -42 -158
-51 -178 -15 -37 -53 -80 -53 -62 0 14 63 236 96 340 25 78 30 88 36 66 5 -17
-5 -75 -28 -166z m2877 93 c30 -20 89 -58 132 -85 43 -27 91 -57 105 -66 32
-20 202 -66 291 -78 74 -10 136 -48 163 -101 23 -43 6 -51 -31 -15 -20 20 -53
31 -146 51 -75 17 -134 24 -158 21 -23 -4 -51 -1 -74 9 -26 11 -39 12 -43 4
-4 -6 -10 8 -14 30 -3 23 -11 42 -16 42 -6 1 -13 2 -17 3 -5 0 -24 13 -44 29
-20 15 -39 27 -43 27 -4 0 -38 19 -74 43 -37 24 -73 42 -79 40 -7 -3 -15 11
-19 31 -3 21 -10 33 -17 29 -6 -3 -7 -1 -3 6 4 6 0 18 -8 27 -9 8 -16 25 -16
37 0 19 3 17 29 -13 15 -19 53 -51 82 -71z m1848 34 c9 -19 8 -23 -1 -17 -27
16 -88 69 -88 77 0 17 78 -36 89 -60z m-1473 -31 c7 -4 -16 -8 -50 -9 -33 -2
-93 -11 -133 -21 -40 -10 -77 -16 -83 -12 -6 4 20 12 57 19 38 7 75 16 83 21
18 11 110 13 126 2z m-1166 -77 c13 -14 21 -25 18 -25 -2 0 -15 11 -28 25 -13
14 -21 25 -18 25 2 0 15 -11 28 -25z m2841 -15 c-6 -26 -10 -31 -15 -18 -4 9
-2 26 4 38 16 30 20 22 11 -20z m-20 -65 c-4 -29 -40 -95 -51 -95 -12 0 -23
37 -14 51 4 8 3 9 -4 5 -19 -11 -14 8 15 64 l27 52 15 -29 c8 -15 14 -37 12
-48z m89 -8 c0 -14 -32 -77 -39 -77 -3 0 -13 13 -22 29 -15 26 -15 33 -1 79
l16 51 23 -37 c12 -20 23 -41 23 -45z m-2829 26 c13 -16 12 -17 -3 -4 -17 13
-22 21 -14 21 2 0 10 -8 17 -17z m2646 -18 c0 -8 -4 -12 -9 -9 -5 3 -6 10 -3
15 9 13 12 11 12 -6z m-2562 -45 c16 -17 16 -20 3 -15 -9 4 -19 13 -22 21 -7
19 -2 18 19 -6z m2695 -57 c0 -18 -38 -73 -51 -73 -5 0 -9 7 -9 16 0 12 -6 15
-25 10 -34 -9 -31 4 10 44 19 19 35 42 35 50 1 20 40 -26 40 -47z m-130 26 c0
-5 -4 -9 -10 -9 -5 0 -10 7 -10 16 0 8 5 12 10 9 6 -3 10 -10 10 -16z m-3143
-4 c0 -8 -4 -12 -9 -9 -5 3 -6 10 -3 15 9 13 12 11 12 -6z m3313 -25 c0 -13
-46 -86 -60 -95 -16 -10 -12 1 18 55 26 47 42 63 42 40z m-1340 -137 c0 -9 -6
-13 -14 -10 -8 3 -17 1 -20 -6 -2 -7 -5 8 -5 33 l0 45 19 -24 c11 -13 20 -30
20 -38z m-3460 -30 c-17 -38 -35 -76 -41 -86 -5 -10 -19 -36 -31 -58 -11 -22
-25 -36 -31 -32 -5 3 -7 1 -3 -5 3 -6 2 -13 -4 -17 -6 -4 -8 -11 -4 -16 3 -5
2 -8 -3 -7 -4 2 -10 -1 -12 -7 -3 -5 -10 -16 -17 -22 -7 -7 -22 -42 -34 -78
-21 -65 -36 -89 -24 -39 4 16 2 29 -5 33 -14 9 5 71 21 71 6 0 7 7 4 16 -3 8
-2 12 4 9 5 -3 14 3 20 14 6 13 7 22 0 26 -12 7 10 45 26 45 10 0 26 47 30 90
2 25 15 50 27 50 6 0 4 -8 -4 -18 -8 -10 -4 -8 8 5 12 13 29 23 38 23 8 0 15
4 15 10 0 9 40 60 46 60 2 0 -10 -30 -26 -67z m4715 58 c3 -5 1 -12 -5 -16 -5
-3 -10 1 -10 9 0 18 6 21 15 7z m-5068 -188 c-9 -43 -19 -116 -22 -163 -4 -47
-9 -88 -12 -93 -2 -4 -49 50 -102 120 l-98 128 70 18 c39 9 93 30 121 46 28
16 52 27 54 26 2 -2 -3 -39 -11 -82z m2597 -49 c11 -4 16 -19 16 -45 0 -34 -4
-41 -27 -50 -36 -14 -55 -8 -71 21 -21 38 -2 80 37 80 16 0 36 -3 45 -6z
m2250 -114 c5 -17 4 -20 -2 -10 -5 8 -13 26 -16 40 -5 17 -4 20 2 10 5 -8 13
-26 16 -40z m-2807 34 c-3 -3 -12 -4 -19 -1 -8 3 -5 6 6 6 11 1 17 -2 13 -5z
m378 -100 c16 -25 16 -27 -1 -44 -19 -18 -84 -37 -84 -25 0 3 5 26 11 51 9 36
16 44 34 44 13 0 30 -11 40 -26z m198 -25 c9 -33 -14 -132 -26 -120 -15 15
-27 14 -27 -1 0 -7 -12 -26 -26 -42 -21 -23 -28 -26 -35 -15 -16 26 -5 72 17
68 5 0 19 2 32 6 24 8 28 25 12 41 -7 7 -7 18 2 35 30 56 42 63 51 28z m-2482
-24 c5 3 6 -1 2 -10 -5 -13 -7 -14 -14 -3 -5 7 -8 20 -8 28 1 11 3 10 6 -3 2
-9 9 -15 14 -12z m102 -220 c-23 -71 -43 -97 -43 -57 0 41 46 146 60 137 5 -3
-3 -39 -17 -80z m2355 16 c5 -35 -27 -227 -50 -298 -21 -67 -32 -82 -42 -58
-9 24 -22 18 -45 -20 -16 -27 -27 -35 -49 -35 -32 0 -52 16 -52 42 0 13 -8 18
-29 18 -17 0 -41 10 -55 23 -26 22 -26 23 -11 72 8 28 21 86 28 130 l13 80 60
7 c32 4 74 9 92 12 20 2 38 -2 47 -11 21 -20 52 -1 60 37 8 35 28 35 33 1z
m1453 -130 c32 -25 69 -53 80 -62 12 -8 20 -20 18 -27 -2 -6 -44 22 -94 63
-49 40 -105 81 -122 91 -18 9 -33 22 -33 30 0 15 55 -20 151 -95z m-1432 55
c-9 -8 -10 -7 -5 7 3 10 7 24 7 30 1 7 3 4 6 -7 3 -10 -1 -23 -8 -30z m2387
-2 c1 -9 0 -13 -4 -10 -3 4 -7 14 -8 22 -1 9 0 13 4 10 3 -4 7 -14 8 -22z
m-2158 -68 c-1 -14 -6 -22 -10 -20 -4 3 -8 1 -8 -4 0 -6 -25 -37 -55 -70 -59
-63 -121 -96 -172 -90 -25 3 -28 7 -26 36 3 73 5 75 119 117 59 22 112 42 117
44 5 2 7 -1 3 -8 -4 -6 -3 -11 2 -11 6 0 12 7 16 15 8 23 16 18 14 -9z"/>
<path d="M7435 4550 c-3 -6 1 -7 9 -4 18 7 21 14 7 14 -6 0 -13 -4 -16 -10z"/>
<path d="M8127 4503 c-14 -13 -6 -33 13 -33 22 0 23 1 14 24 -7 17 -16 20 -27
9z"/>
<path d="M8353 3813 c0 -9 4 -10 14 -2 7 6 13 12 13 14 0 1 -6 2 -13 2 -8 0
-14 -6 -14 -14z"/>
<path d="M5361 3784 c0 -11 3 -14 6 -6 3 7 2 16 -1 19 -3 4 -6 -2 -5 -13z"/>
<path d="M6013 3525 c0 -22 2 -30 4 -17 2 12 2 30 0 40 -3 9 -5 -1 -4 -23z"/>
<path d="M6696 2923 c6 -30 24 -57 20 -30 -1 9 -5 19 -8 23 -4 3 -4 12 -1 20
3 8 0 14 -5 14 -6 0 -9 -12 -6 -27z"/>
<path d="M6717 2838 c3 -18 8 -35 11 -38 4 -3 9 -14 10 -25 2 -11 6 -22 9 -25
7 -8 -5 63 -16 94 -14 36 -20 33 -14 -6z"/>
<path d="M7505 2704 c-12 -9 -30 -13 -45 -9 -24 6 -24 6 -6 -14 11 -12 31 -21
48 -21 24 0 28 4 28 30 0 35 1 34 -25 14z"/>
<path d="M7236 2517 c3 -10 9 -15 12 -12 3 3 0 11 -7 18 -10 9 -11 8 -5 -6z"/>
<path d="M4901 3651 c-8 -5 -11 -16 -8 -24 3 -8 1 -19 -4 -24 -6 -6 1 -19 17
-34 l27 -24 -12 23 c-10 19 -10 27 1 39 11 13 11 17 0 21 -10 3 -10 7 -1 18
13 16 1 18 -20 5z m19 -35 c0 -2 -8 -10 -17 -17 -16 -13 -17 -12 -4 4 13 16
21 21 21 13z"/>
<path d="M4715 3310 c-3 -5 -1 -10 4 -10 6 0 11 5 11 10 0 6 -2 10 -4 10 -3 0
-8 -4 -11 -10z"/>
<path d="M4361 3208 c-1 -15 4 -30 10 -33 17 -11 18 -2 4 30 l-13 30 -1 -27z"/>
<path d="M4286 3188 c3 -5 10 -6 15 -3 13 9 11 12 -6 12 -8 0 -12 -4 -9 -9z"/>
<path d="M5631 3074 c0 -11 3 -14 6 -6 3 7 2 16 -1 19 -3 4 -6 -2 -5 -13z"/>
<path d="M3830 2624 c-21 -54 -3 -117 52 -179 27 -32 113 -85 135 -85 4 0 9
28 11 61 3 57 2 61 -17 56 -22 -5 -55 26 -120 116 -23 31 -44 57 -47 57 -2 0
-9 -12 -14 -26z"/>
<path d="M8387 2639 c7 -7 15 -10 18 -7 3 3 -2 9 -12 12 -14 6 -15 5 -6 -5z"/>
<path d="M8491 2619 c-13 -10 -19 -19 -14 -19 13 0 49 27 43 33 -3 3 -16 -3
-29 -14z"/>
<path d="M8826 1742 c-3 -5 1 -9 9 -9 8 0 12 4 9 9 -3 4 -7 8 -9 8 -2 0 -6 -4
-9 -8z"/>
<path d="M6753 882 c10 -10 15 -21 12 -24 -3 -2 2 -5 10 -5 12 0 10 6 -7 24
-25 27 -39 32 -15 5z"/>
<path d="M4839 953 c-13 -16 -12 -17 4 -4 16 13 21 21 13 21 -2 0 -10 -8 -17
-17z"/>
<path d="M4790 825 c-8 -9 -8 -15 -2 -15 12 0 26 19 19 26 -2 2 -10 -2 -17
-11z"/>
<path d="M14600 6169 c-141 -20 -298 -127 -368 -250 -55 -98 -77 -189 -76
-319 1 -145 30 -243 103 -346 103 -147 245 -214 449 -214 119 0 184 12 270 51
47 21 62 33 62 49 0 33 -26 34 -91 5 -214 -96 -473 -52 -609 103 -76 86 -130
233 -130 357 0 120 52 267 124 351 47 56 128 108 207 134 56 19 80 22 189 18
109 -4 133 -8 190 -32 83 -36 114 -38 118 -9 3 18 -7 27 -45 46 -106 54 -258
76 -393 56z"/>
<path d="M17147 6153 c-13 -12 -8 -388 5 -401 9 -9 71 -12 219 -12 176 0 208
2 220 16 9 11 10 20 2 32 -9 15 -36 17 -202 20 l-191 2 0 145 0 145 274 0
c230 0 276 2 286 15 7 8 10 22 6 30 -5 13 -47 15 -309 15 -167 0 -307 -3 -310
-7z"/>
<path d="M18467 6153 c-13 -12 -8 -388 5 -401 9 -9 71 -12 219 -12 176 0 208
2 220 16 9 11 10 20 2 32 -9 15 -36 17 -202 20 l-191 2 0 145 0 145 274 0
c231 0 275 2 286 15 10 12 10 18 0 30 -11 13 -58 15 -310 15 -163 0 -300 -3
-303 -7z"/>
<path d="M2871 5627 c-8 -10 -7 -14 2 -14 8 0 14 6 14 14 0 7 -1 13 -2 13 -2
0 -8 -6 -14 -13z"/>
<path d="M5525 5527 c-3 -6 -4 -161 -3 -342 l3 -330 25 0 25 0 5 273 5 272
196 -272 c163 -229 199 -273 219 -273 16 0 26 7 28 18 2 11 -87 145 -229 342
-226 315 -259 353 -274 312z"/>
<path d="M2975 5520 c4 -6 11 -8 16 -5 14 9 11 15 -7 15 -8 0 -12 -5 -9 -10z"/>
<path d="M3965 5518 c-3 -7 -4 -159 -3 -338 l3 -325 28 -3 c15 -2 28 -2 29 0
1 2 5 123 8 271 l5 267 203 -271 c170 -226 207 -270 225 -267 13 2 23 11 25
23 3 30 -466 649 -496 653 -12 2 -24 -3 -27 -10z"/>
<path d="M9247 5485 c9 -19 18 -33 21 -31 4 5 -26 66 -33 66 -3 0 3 -16 12
-35z"/>
<path d="M17151 5436 c-8 -9 -11 -73 -9 -207 l3 -194 308 -3 c268 -2 308 0
313 13 4 8 1 22 -6 30 -10 13 -56 15 -286 15 l-274 0 0 150 0 150 197 2 c184
3 198 4 201 22 2 10 -2 22 -10 27 -7 5 -106 9 -219 9 -164 0 -209 -3 -218 -14z"/>
<path d="M18473 5443 c-17 -6 -19 -758 -3 -768 6 -3 19 -3 30 0 19 6 20 16 20
355 l0 350 191 2 c166 3 193 5 202 20 8 12 7 21 -2 32 -12 14 -43 16 -220 15
-113 0 -212 -3 -218 -6z"/>
<path d="M2875 5351 c-3 -5 -2 -12 3 -15 5 -3 9 1 9 9 0 17 -3 19 -12 6z"/>
<path d="M2661 5336 c-8 -10 -9 -16 -1 -21 6 -4 9 -1 8 7 -2 7 3 12 10 10 8
-1 11 2 7 8 -8 13 -10 13 -24 -4z"/>
<path d="M2863 5303 c0 -9 4 -10 14 -2 7 6 13 12 13 14 0 1 -6 2 -13 2 -8 0
-14 -6 -14 -14z"/>
<path d="M2580 5010 c0 -5 5 -10 11 -10 5 0 7 5 4 10 -3 6 -8 10 -11 10 -2 0
-4 -4 -4 -10z"/>
<path d="M2189 4763 c-13 -16 -12 -17 4 -4 9 7 17 15 17 17 0 8 -8 3 -21 -13z"/>
<path d="M2683 4583 c0 -7 7 -13 14 -13 8 0 11 -4 8 -10 -6 -10 14 -4 53 16
22 11 22 12 2 17 -11 3 -20 1 -20 -4 0 -5 -9 -9 -21 -9 -11 0 -18 4 -15 8 3 5
-1 9 -8 9 -7 0 -13 -6 -13 -14z"/>
<path d="M2655 4571 c-3 -5 -1 -12 5 -16 6 -4 8 -10 6 -14 -3 -4 1 -8 8 -8 7
0 13 6 13 13 0 7 -5 12 -11 11 -6 -1 -10 4 -8 11 2 14 -4 16 -13 3z"/>
<path d="M5525 4568 c-3 -7 -4 -144 -3 -303 3 -287 3 -290 24 -293 18 -3 59
48 234 282 128 174 210 293 208 303 -2 10 -13 19 -24 21 -18 3 -54 -41 -200
-238 l-179 -240 -5 237 c-5 238 -5 238 -28 241 -12 2 -24 -3 -27 -10z"/>
<path d="M2866 4541 c-14 -16 -15 -20 -2 -30 10 -8 16 -9 21 -1 4 6 2 9 -3 8
-6 -2 -9 2 -8 7 0 6 4 9 7 8 3 -1 6 5 6 13 0 18 -1 18 -21 -5z"/>
<path d="M14495 4414 c-180 -40 -324 -115 -440 -229 -123 -120 -192 -242 -243
-423 -24 -87 -27 -114 -26 -257 0 -135 3 -173 23 -245 76 -281 227 -471 466
-586 117 -56 224 -83 360 -91 130 -7 255 8 365 43 76 24 92 36 83 62 -6 17
-23 15 -105 -12 -100 -34 -225 -49 -328 -41 -259 21 -416 88 -570 244 -118
120 -174 220 -222 399 -28 107 -31 323 -5 436 42 178 107 296 232 421 78 78
105 98 195 143 58 29 140 61 184 72 166 42 353 36 517 -16 83 -26 99 -25 99 5
0 18 -52 42 -155 71 -68 20 -349 22 -430 4z"/>
<path d="M15393 4413 c-10 -4 -13 -196 -13 -918 0 -823 2 -913 16 -919 21 -8
1022 -8 1052 0 16 5 22 13 20 28 l-3 21 -517 3 -518 2 0 889 c0 918 0 907 -37
894z"/>
<path d="M16802 4411 c-11 -7 -13 -170 -12 -917 0 -499 3 -910 5 -912 2 -3 24
-5 47 -5 24 1 240 1 481 2 l438 1 -3 23 -3 22 -457 3 -458 2 0 865 0 865 457
2 c439 3 458 4 461 22 2 10 -2 22 -10 27 -17 11 -929 11 -946 0z"/>
<path d="M18114 4406 c-12 -10 -14 -133 -12 -916 l3 -905 25 0 25 0 3 887 2
888 458 2 457 3 3 23 3 22 -413 1 c-227 1 -441 2 -476 3 -35 1 -70 -2 -78 -8z"/>
<path d="M15737 4404 c-4 -4 -7 -332 -7 -729 0 -547 3 -724 12 -733 9 -9 101
-12 354 -12 188 0 349 3 358 6 9 3 16 15 16 25 0 15 -8 19 -35 20 -19 1 -44 3
-55 4 -11 1 -148 3 -305 4 l-285 1 -2 708 c-3 703 -3 707 -23 710 -12 2 -24 0
-28 -4z"/>
<path d="M3964 4205 c-4 -8 -1 -22 6 -30 10 -12 45 -15 189 -15 164 0 180 -2
221 -22 102 -53 106 -188 8 -248 -25 -15 -51 -20 -105 -20 -87 0 -103 -5 -103
-36 0 -31 31 -39 120 -31 71 6 118 24 158 61 93 84 79 247 -26 321 l-44 30
-209 3 c-183 3 -210 1 -215 -13z"/>
<path d="M2160 4132 c0 -14 -61 -41 -83 -37 -14 3 -16 1 -8 -9 6 -7 9 -15 6
-18 -3 -2 2 -5 10 -5 8 0 11 5 8 10 -4 6 -1 7 8 1 19 -12 32 -12 48 0 12 9 13
8 6 -4 -8 -13 -6 -13 8 -1 9 7 14 18 10 25 -4 6 1 5 10 -3 9 -7 18 -11 18 -7
1 3 2 12 3 19 1 6 7 11 12 10 6 -1 11 5 11 12 0 12 -3 12 -15 3 -17 -14 -44
-20 -37 -8 3 5 1 11 -5 15 -5 3 -10 2 -10 -3z"/>
<path d="M2243 4125 c0 -6 6 -12 12 -12 6 0 12 6 12 12 0 6 -6 12 -12 12 -6 0
-12 -6 -12 -12z"/>
<path d="M2243 4085 c0 -6 6 -12 12 -12 6 0 12 6 12 12 0 6 -6 12 -12 12 -6 0
-12 -6 -12 -12z"/>
<path d="M14570 4059 c-25 -5 -82 -27 -126 -49 -134 -66 -227 -185 -269 -345
-21 -78 -21 -241 0 -319 55 -208 204 -353 403 -395 123 -26 299 -5 402 46 57
30 65 39 51 62 -8 12 -19 10 -70 -13 -379 -170 -751 58 -751 459 0 154 52 286
149 379 152 145 377 176 597 83 49 -21 61 -23 73 -12 7 7 10 18 6 24 -12 20
-102 61 -167 76 -68 16 -225 18 -298 4z"/>
<path d="M17152 4048 c-14 -14 -17 -364 -4 -386 7 -9 59 -12 228 -10 211 3
219 4 219 23 0 19 -8 20 -197 23 l-198 2 0 155 0 155 281 0 280 0 -3 23 -3 22
-295 3 c-222 2 -299 -1 -308 -10z"/>
<path d="M18471 4046 c-8 -9 -11 -70 -9 -202 l3 -189 219 -3 c223 -2 242 0
229 35 -4 10 -46 13 -199 13 l-194 0 0 155 0 155 281 0 280 0 -3 23 -3 22
-296 3 c-244 2 -298 0 -308 -12z"/>
<path d="M1870 4010 c0 -5 7 -10 15 -10 8 0 15 5 15 10 0 6 -7 10 -15 10 -8 0
-15 -4 -15 -10z"/>
<path d="M1935 3989 c-4 -5 1 -9 9 -9 9 0 16 -4 16 -10 0 -5 5 -10 11 -10 5 0
7 5 4 11 -4 6 2 5 14 -3 17 -11 23 -10 36 3 14 13 13 15 -7 16 -13 0 -35 3
-50 6 -15 3 -30 1 -33 -4z"/>
<path d="M1852 3970 c-17 -29 -16 -30 28 -30 36 0 40 3 40 25 0 21 -5 25 -28
25 -16 0 -32 -8 -40 -20z"/>
<path d="M2041 3956 c-8 -10 -9 -16 -1 -21 6 -4 9 -1 8 7 -2 7 3 12 10 10 8
-1 11 2 7 8 -8 13 -10 13 -24 -4z"/>
<path d="M9211 3941 c-1 -7 6 -41 15 -74 9 -34 20 -97 24 -142 l9 -80 -4 85
c-4 72 -41 252 -44 211z"/>
<path d="M1960 3928 c0 -4 4 -8 9 -8 6 0 12 4 15 8 3 5 -1 9 -9 9 -8 0 -15 -4
-15 -9z"/>
<path d="M2063 3913 c4 -3 2 -12 -4 -19 -7 -8 -7 -14 1 -19 6 -4 9 -2 8 3 -2
6 2 10 7 10 6 0 9 -4 8 -9 -2 -5 4 -9 12 -9 14 0 13 3 -1 25 -9 14 -21 25 -27
25 -6 0 -7 -3 -4 -7z"/>
<path d="M1940 3895 c0 -8 5 -15 10 -15 6 0 10 -7 10 -17 0 -15 1 -15 18 0 28
26 24 47 -10 47 -18 0 -28 -5 -28 -15z m45 -4 c3 -5 2 -12 -3 -15 -5 -3 -9 1
-9 9 0 17 3 19 12 6z"/>
<path d="M1868 3773 c7 -3 16 -2 19 1 4 3 -2 6 -13 5 -11 0 -14 -3 -6 -6z"/>
<path d="M2045 3770 c8 -12 -29 -38 -49 -34 -14 2 -16 0 -7 -9 15 -15 41 -18
38 -4 -1 7 5 11 13 9 8 -2 12 0 7 4 -4 4 0 15 8 24 13 14 13 17 0 17 -8 0 -12
-3 -10 -7z"/>
<path d="M2170 3770 c-12 -7 -12 -11 -2 -20 6 -5 10 -7 7 -4 -3 4 0 13 6 21
13 15 10 16 -11 3z"/>
<path d="M1955 3740 c3 -6 -1 -7 -9 -4 -9 3 -16 1 -16 -5 0 -6 -7 -11 -15 -11
-8 0 -15 5 -15 10 0 17 -19 11 -29 -8 -13 -24 -3 -62 15 -62 8 0 14 9 14 20 0
11 7 20 15 20 8 0 15 5 15 10 0 6 9 10 20 10 11 0 20 7 20 15 0 8 -5 15 -11
15 -5 0 -7 -4 -4 -10z"/>
<path d="M1828 3713 c7 -3 16 -2 19 1 4 3 -2 6 -13 5 -11 0 -14 -3 -6 -6z"/>
<path d="M1934 3683 c10 -11 36 -12 36 -2 0 5 -10 9 -22 9 -12 0 -18 -3 -14
-7z"/>
<path d="M2044 3652 c23 -26 23 -26 23 -7 0 8 -3 13 -5 10 -3 -3 -12 1 -21 7
-10 8 -9 4 3 -10z"/>
<path d="M2572 3658 c-19 -19 -15 -34 47 -178 l58 -135 -121 -5 -121 -5 0 -25
0 -25 151 -3 c121 -2 153 0 163 12 9 11 -2 49 -55 182 -37 93 -71 175 -77 182
-12 15 -30 15 -45 0z"/>
<path d="M1915 3640 c-27 -7 -28 -8 -5 -8 14 0 34 3 45 8 25 11 2 11 -40 0z"/>
<path d="M1735 3590 c-3 -5 -1 -10 4 -10 6 0 11 5 11 10 0 6 -2 10 -4 10 -3 0
-8 -4 -11 -10z"/>
<path d="M9262 3535 c0 -16 2 -22 5 -12 2 9 2 23 0 30 -3 6 -5 -1 -5 -18z"/>
<path d="M1958 3523 c7 -3 16 -2 19 1 4 3 -2 6 -13 5 -11 0 -14 -3 -6 -6z"/>
<path d="M9282 3320 c0 -14 2 -19 5 -12 2 6 2 18 0 25 -3 6 -5 1 -5 -13z"/>
<path d="M17146 3324 c-3 -8 -6 -96 -6 -194 0 -138 3 -180 14 -189 9 -8 99
-11 307 -9 l294 3 3 23 3 22 -280 0 -281 0 0 155 0 155 198 2 c189 3 197 4
197 23 0 19 -8 20 -221 23 -196 2 -222 0 -228 -14z"/>
<path d="M18465 3327 c-3 -6 -4 -176 -3 -377 3 -348 4 -365 22 -368 10 -2 22
2 27 10 5 7 9 167 9 356 l0 342 194 0 c197 0 211 3 199 38 -7 18 -441 18 -448
-1z"/>
<path d="M9281 3273 c0 -4 4 -17 9 -28 8 -19 9 -19 9 2 1 12 -3 25 -9 28 -5 3
-10 3 -9 -2z"/>
<path d="M9301 3215 c0 -5 6 -21 14 -35 8 -14 14 -20 14 -15 0 6 -6 21 -14 35
-8 14 -14 21 -14 15z"/>
<path d="M2272 2933 c-58 -136 -62 -151 -46 -168 25 -24 45 -4 79 77 l31 73
256 3 256 2 28 -67 c35 -86 57 -112 78 -93 9 7 16 18 16 24 0 15 -61 167 -73
184 -7 9 -81 12 -307 12 l-298 0 -20 -47z"/>
<path d="M975 2710 c-25 -26 -25 -27 -5 -45 11 -10 18 -21 15 -24 -2 -4 7 -7
19 -7 12 0 23 6 23 12 0 7 -5 12 -11 11 -6 -1 -10 4 -8 11 1 6 -1 11 -5 11
-22 -4 -24 3 -8 21 10 11 21 18 25 15 4 -2 7 2 7 9 0 21 -25 14 -52 -14z m35
17 c0 -2 -10 -12 -22 -23 l-23 -19 19 23 c18 21 26 27 26 19z m-15 -67 c10
-11 16 -20 13 -20 -3 0 -13 9 -23 20 -10 11 -16 20 -13 20 3 0 13 -9 23 -20z"/>
<path d="M786 2708 c3 -5 10 -6 15 -3 13 9 11 12 -6 12 -8 0 -12 -4 -9 -9z"/>
<path d="M1199 2613 c-1 -1 -2 -6 -3 -10 -1 -5 -5 -14 -9 -20 -5 -7 -5 -13 -1
-13 3 0 1 -6 -5 -14 -8 -9 -8 -16 -2 -20 5 -4 12 -2 16 4 3 5 3 10 -1 10 -4 0
1 9 11 20 23 26 27 47 9 47 -8 0 -15 -2 -15 -4z m15 -12 c3 -5 -2 -15 -12 -22
-15 -12 -16 -12 -5 2 7 9 10 19 6 22 -3 4 -4 7 0 7 3 0 8 -4 11 -9z"/>
<path d="M769 2483 c-13 -16 -12 -17 4 -4 9 7 17 15 17 17 0 8 -8 3 -21 -13z"/>
<path d="M355 2451 c-3 -5 -2 -12 3 -15 5 -3 9 1 9 9 0 17 -3 19 -12 6z"/>
<path d="M355 2371 c-3 -5 -2 -12 3 -15 5 -3 9 1 9 9 0 17 -3 19 -12 6z"/>
<path d="M460 2350 c0 -5 7 -10 16 -10 8 0 12 5 9 10 -3 6 -10 10 -16 10 -5 0
-9 -4 -9 -10z"/>
<path d="M759 2239 c-6 -31 -6 -40 2 -45 6 -4 6 -11 -1 -19 -7 -9 -6 -16 4
-24 9 -8 16 -8 20 -2 4 5 2 12 -4 16 -6 4 -8 11 -4 16 3 5 11 6 17 2 9 -5 9
-3 0 8 -8 10 -9 19 -3 27 6 7 7 10 4 7 -4 -3 -13 0 -21 6 -7 6 -13 10 -14 8z"/>
<path d="M2572 2158 c-5 -7 -45 -98 -87 -203 -43 -104 -111 -271 -153 -370
-41 -99 -91 -223 -112 -275 -21 -52 -117 -289 -214 -527 -97 -238 -176 -441
-176 -452 0 -24 23 -33 43 -18 8 7 56 113 107 237 50 124 156 383 235 575 79
193 191 469 250 615 59 146 112 275 119 287 10 20 52 -77 366 -845 313 -764
358 -867 378 -870 12 -2 24 3 27 10 3 8 -60 176 -140 374 -443 1092 -589 1450
-598 1462 -5 6 -15 12 -22 12 -7 0 -17 -6 -23 -12z"/>
<path d="M805 2040 c-4 -6 -12 -7 -18 -4 -7 4 -1 -5 12 -19 29 -32 28 -31 28
-13 0 8 -4 14 -8 13 -4 -1 -6 3 -5 8 0 6 5 9 9 7 5 -1 6 2 2 8 -8 13 -12 13
-20 0z"/>
<path d="M1003 1825 c0 -6 6 -12 12 -12 6 0 12 6 12 12 0 6 -6 12 -12 12 -6 0
-12 -6 -12 -12z"/>
<path d="M3970 1755 c-10 -12 -10 -18 0 -30 10 -12 45 -15 194 -15 152 0 187
-3 216 -18 73 -36 101 -128 62 -202 -26 -48 -78 -72 -175 -79 -73 -5 -82 -8
-82 -26 0 -19 7 -20 102 -20 97 0 103 1 145 30 138 97 107 304 -55 364 -16 6
-107 11 -211 11 -151 0 -186 -3 -196 -15z"/>
<path d="M1190 1626 c14 -14 37 -16 37 -2 0 7 -11 12 -24 12 -15 0 -20 -3 -13
-10z"/>
<path d="M1360 1590 c0 -5 5 -10 11 -10 5 0 7 5 4 10 -3 6 -8 10 -11 10 -2 0
-4 -4 -4 -10z"/>
<path d="M1800 1308 c0 -4 4 -8 9 -8 6 0 12 4 15 8 3 5 -1 9 -9 9 -8 0 -15 -4
-15 -9z"/>
<path d="M2570 1205 c-14 -17 -12 -25 64 -205 l44 -105 -121 -5 -122 -5 0 -25
0 -25 151 -3 c120 -2 154 0 163 12 9 11 -4 51 -61 192 -73 179 -90 203 -118
169z"/>
<path d="M3969 953 c-1 -5 -2 -151 -3 -326 -2 -329 1 -358 38 -344 14 6 16 34
17 259 1 139 2 258 4 263 1 6 3 14 3 19 1 5 94 -114 208 -265 113 -151 209
-276 215 -277 15 -6 41 20 35 34 -3 7 -111 155 -242 328 -163 218 -242 316
-255 316 -11 0 -20 -3 -20 -7z"/>
<path d="M9560 555 c0 -8 4 -15 10 -15 5 0 7 7 4 15 -4 8 -8 15 -10 15 -2 0
-4 -7 -4 -15z"/>
<path d="M2293 518 c-18 -23 -73 -162 -73 -185 0 -18 6 -23 24 -23 21 0 29 11
57 80 l33 80 259 -2 258 -3 33 -75 c27 -64 36 -75 56 -75 14 0 26 7 28 15 1 8
-15 56 -36 105 l-38 90 -296 3 c-229 2 -298 -1 -305 -10z"/>
<path d="M355 471 c-3 -5 -2 -12 3 -15 5 -3 9 1 9 9 0 17 -3 19 -12 6z"/>
<path d="M508 463 c6 -2 18 -2 25 0 6 3 1 5 -13 5 -14 0 -19 -2 -12 -5z"/>
<path d="M10708 100 c-3 -94 2 -120 16 -84 10 25 7 184 -3 184 -5 0 -11 -45
-13 -100z"/>
</g>
</svg>
